<svg xmlns="http://www.w3.org/2000/svg" width="76.434" height="68.054" viewBox="0 0 76.434 68.054"><defs><style>.a{fill:#fff;}</style></defs><g transform="translate(-71.5 -89.45)"><path class="a" d="M1107.67,1681.154a6.839,6.839,0,1,1,6.839-6.839A6.847,6.847,0,0,1,1107.67,1681.154Zm.1-10.179a3.5,3.5,0,1,0,3.5,3.5A3.5,3.5,0,0,0,1107.769,1670.975Z" transform="translate(-997.939 -1551)"/><path class="a" d="M144.037,116.576a31.19,31.19,0,0,0-9.673-5.1c-.79-.272-1.608-.545-2.452-.763.136-.572.272-1.144.381-1.689,1.907-9.21.545-16.377-3.515-18.72-1.989-1.144-4.714-1.144-7.848,0a31.057,31.057,0,0,0-9.237,5.831c-.627.545-1.281,1.144-1.907,1.744-.436-.409-.845-.79-1.281-1.172-7.03-6.24-13.924-8.665-17.984-6.322-1.989,1.144-3.352,3.515-3.924,6.812a31.6,31.6,0,0,0,.436,10.927c.164.817.354,1.689.572,2.534-.981.272-1.935.572-2.834.9-8.311,2.888-13.27,7.3-13.27,11.826,0,2.343,1.39,4.8,4.006,7.03a30.809,30.809,0,0,0,10,5.341c.681.218,1.362.436,2.071.654-.218.926-.436,1.826-.6,2.725-1.635,8.638-.272,15.15,3.624,17.412a7.183,7.183,0,0,0,3.651.9,13.1,13.1,0,0,0,4.414-.845,30.516,30.516,0,0,0,9.619-5.967c.518-.463,1.063-.954,1.58-1.471.681.654,1.39,1.281,2.071,1.88,4.9,4.224,9.592,6.458,13.3,6.458a6.948,6.948,0,0,0,3.57-.9c2.044-1.172,3.461-3.6,4.087-6.976a31.762,31.762,0,0,0-.381-11.336c-.136-.681-.272-1.362-.463-2.044.49-.136.954-.3,1.417-.436,8.938-2.943,14.469-7.711,14.469-12.4C147.961,121.1,146.6,118.729,144.037,116.576Zm-21.99-23.189c2.18-.79,3.978-.872,5.1-.245,2.18,1.253,3.733,6.567,1.935,15.232-.109.49-.218,1.008-.354,1.5a76.1,76.1,0,0,0-10.246-1.608,74.882,74.882,0,0,0-6.458-8.038c.572-.572,1.172-1.09,1.744-1.608A29.2,29.2,0,0,1,122.047,93.388Zm-1.635,36.241c-1.2,2.071-2.425,4.06-3.651,5.913-2.262.163-4.605.245-7,.245s-4.714-.082-6.921-.218c-1.308-1.907-2.561-3.9-3.733-5.913-1.172-2.044-2.262-4.115-3.27-6.158.981-2.071,2.071-4.142,3.243-6.158h0c1.172-2.044,2.425-4.033,3.706-5.913,2.289-.163,4.605-.272,6.949-.272,2.371,0,4.687.082,6.976.272,1.253,1.88,2.507,3.842,3.679,5.886,1.2,2.1,2.316,4.142,3.3,6.131C122.7,125.487,121.611,127.558,120.412,129.629Zm5.041-2.425a65.654,65.654,0,0,1,2.561,6.73,64.724,64.724,0,0,1-7.139,1.226c.79-1.253,1.58-2.561,2.343-3.9C124.036,129.9,124.772,128.539,125.453,127.2Zm-15.586,17.276a68.243,68.243,0,0,1-4.605-5.5c1.444.055,2.943.082,4.469.082,1.553,0,3.106-.027,4.632-.109C112.864,140.964,111.365,142.817,109.867,144.479Zm-11.2-9.292a62.141,62.141,0,0,1-7.03-1.144,70.42,70.42,0,0,1,2.48-6.73c.681,1.308,1.417,2.643,2.18,3.951Q97.4,133.307,98.667,135.187Zm-2.4-19.51c-.763,1.308-1.471,2.643-2.18,3.951a67.951,67.951,0,0,1-2.425-6.622c2.18-.49,4.523-.9,6.948-1.2C97.8,113.089,97.005,114.369,96.269,115.677Zm13.515-13.107c1.5,1.635,3,3.433,4.5,5.423-1.5-.082-3.025-.109-4.551-.109-1.5,0-3,.027-4.469.109A66.153,66.153,0,0,1,109.785,102.57Zm13.434,13.08c-.763-1.308-1.526-2.589-2.316-3.815a66.261,66.261,0,0,1,6.976,1.226,63.715,63.715,0,0,1-2.452,6.594Q124.4,117.653,123.219,115.65ZM90.247,107.5a27.418,27.418,0,0,1-.409-9.728c.381-2.289,1.226-3.9,2.343-4.551,2.18-1.253,7.548.055,14.169,5.94q.572.49,1.144,1.063a75.793,75.793,0,0,0-6.485,8.038,81.126,81.126,0,0,0-10.218,1.58C90.574,109.056,90.411,108.293,90.247,107.5Zm-3.706,25.178c-8.093-2.752-11.772-6.758-11.772-9.292,0-2.425,3.433-6.077,11.09-8.747q1.267-.45,2.616-.817a75.487,75.487,0,0,0,3.733,9.673,77.041,77.041,0,0,0-3.76,9.782C87.795,133.089,87.168,132.871,86.541,132.681Zm7.711,21.5a4.014,4.014,0,0,1-2.016-.463c-2.1-1.2-3.542-5.995-2.044-13.951.163-.817.354-1.662.545-2.534a77.163,77.163,0,0,0,10.3,1.5,81.793,81.793,0,0,0,6.567,8.12c-.49.463-.981.926-1.444,1.335C101.2,152.463,96.951,154.18,94.253,154.18Zm35.1-15.259c1.662,8.393.055,13.57-2.125,14.823-2.1,1.226-6.976.082-13.107-5.2-.627-.545-1.281-1.144-1.935-1.744a71.94,71.94,0,0,0,6.4-8.147,75.086,75.086,0,0,0,10.355-1.608Q129.145,138.021,129.35,138.921Zm3.134-6.24c-.409.136-.845.272-1.281.409a74.458,74.458,0,0,0-3.869-9.673,79.166,79.166,0,0,0,3.733-9.564c.79.218,1.553.463,2.289.708a28.066,28.066,0,0,1,8.638,4.523c1.771,1.471,2.752,3,2.752,4.305C144.718,125.923,140.876,129.9,132.483,132.681Z"/></g></svg>