<svg xmlns="http://www.w3.org/2000/svg" width="98" height="98" viewBox="0 0 98 98"><defs><style>.a{fill:none;}.b{fill:#28ad47;}</style></defs><g transform="translate(-570 -1614)"><rect class="a" width="98" height="98" transform="translate(570 1614)"/><path class="b" d="M75.486,38.243A37.243,37.243,0,1,0,12.4,65a2.273,2.273,0,0,0,.586.533,37.027,37.027,0,0,0,50.51,0A2.273,2.273,0,0,0,64.085,65,37.111,37.111,0,0,0,75.486,38.243ZM38.243,5.655A32.542,32.542,0,0,1,63.785,58.419C61.766,51.908,56,46.811,48.18,44.466a16.988,16.988,0,1,0-19.873,0C20.484,46.811,14.72,51.908,12.7,58.419A32.542,32.542,0,0,1,38.243,5.655ZM25.911,30.734a12.333,12.333,0,1,1,12.333,12.31A12.335,12.335,0,0,1,25.911,30.734Zm-9.3,31.816c.7-8.535,9.75-14.851,21.63-14.851s20.93,6.316,21.63,14.851a32.39,32.39,0,0,1-43.259,0Z" transform="translate(581 1625)"/></g></svg>