<svg xmlns="http://www.w3.org/2000/svg" xmlns:xlink="http://www.w3.org/1999/xlink" width="493.406" height="319.004" viewBox="0 0 493.406 319.004"><defs><style>.a{fill:#85848b;}.b{fill:#504f60;}.c{opacity:0.2;}.d{fill:#6c63ff;}.e{fill:#514e7f;}.f{fill:#464353;}.g{fill:#a1616a;}.h{fill:#518c89;}.i,.u{opacity:0.1;}.j{fill:#33323d;}.k{fill:#8dd070;}.l{fill:#c7bb28;}.m{fill:#fbbebe;}.n,.r{opacity:0.05;}.o{fill:#3f3d56;}.p{fill:url(#a);}.q{fill:#2d293d;}.s{fill:#ffcdd3;}.t{fill:#575988;}.v{fill:#4f9186;}.w{fill:#3e685e;}</style><linearGradient id="a" x1="0.5" y1="1" x2="0.5" gradientUnits="objectBoundingBox"><stop offset="0" stop-color="gray" stop-opacity="0.251"/><stop offset="0.54" stop-color="gray" stop-opacity="0.122"/><stop offset="1" stop-color="gray" stop-opacity="0.102"/></linearGradient></defs><rect class="a" width="493.406" height="3.606" transform="translate(0 315.398)"/><path class="b" d="M837.617,651.444c0,2.773-16.167,10.859-35.37,10.859s-34.167-8.086-34.167-10.859,15.565-1.88,34.787-1.88S837.617,648.666,837.617,651.444Z" transform="translate(-446.712 -399.712)"/><path class="c" d="M837.617,653.72c0,2.774-16.167,10.859-35.37,10.859s-34.167-8.086-34.167-10.859" transform="translate(-446.712 -401.987)"/><path class="d" d="M503.1,537.153c3.117.4,6.351.653,9.336-.315.47-.146.987-.47.94-.94a1.138,1.138,0,0,0-.212-.47,29.049,29.049,0,0,1-2.821-5.373.469.469,0,0,0-.174-.244.442.442,0,0,0-.3,0c-1.377.362-2.567,1.25-3.935,1.631a5.6,5.6,0,0,1-2.144.16c-.621-.07-1.467-.583-2.031-.517C502.08,533.139,502.86,535.057,503.1,537.153Z" transform="translate(-305.588 -336.313)"/><path class="d" d="M626.142,522.372c2.054-1.41,4.184-2.891,5.4-5.068a.88.88,0,0,0,.146-.437.9.9,0,0,0-.174-.423,17.471,17.471,0,0,0-4.386-4.734,12.792,12.792,0,0,0-2.445,2.257c-.517.545-1.946,1.41-1.96,2.242,0,.47.545,1.015.8,1.41.343.508.667,1.025.978,1.551A18.414,18.414,0,0,1,626.142,522.372Z" transform="translate(-369.685 -326.736)"/><path class="e" d="M494.7,547.23a2.092,2.092,0,0,1-.376,1.363,1.848,1.848,0,0,1-.79.47c-4.358,1.561-9.4-.385-13.75,1.152-.893.315-1.739.771-2.637,1.072a14.349,14.349,0,0,1-3.291.583c-1.537.146-3.084.24-4.626.282a11.126,11.126,0,0,1-3.488-.306,4.189,4.189,0,0,1-2.675-2.12,2.036,2.036,0,0,1-.132-1.509,1.628,1.628,0,0,1,.287-.47,4.124,4.124,0,0,1,1.025-.832l1.6-1.034a10.763,10.763,0,0,1,2.43-1.288c.635-.207,1.307-.3,1.951-.47,2.252-.658,3.972-2.444,5.571-4.16l2.181-2.327a2.195,2.195,0,0,1,.757-.606,2.1,2.1,0,0,1,.94-.089,12.57,12.57,0,0,1,5.947,1.993,7.7,7.7,0,0,0,1.467.865,5.237,5.237,0,0,0,4.1-.508c.559-.3.437-.47.672-1.006s.809-.879,1.307-.39a1.382,1.382,0,0,1,.31.592,16.674,16.674,0,0,1,.291,4.847,2.134,2.134,0,0,0,.094.752,4.259,4.259,0,0,0,.428.7,1.572,1.572,0,0,1,.089.179,4.781,4.781,0,0,1,.315,2.271Z" transform="translate(-284.966 -340.095)"/><path class="f" d="M494.7,556.275a2.092,2.092,0,0,1-.376,1.363,1.848,1.848,0,0,1-.79.47c-4.358,1.561-9.4-.385-13.75,1.152-.893.315-1.739.771-2.637,1.072a14.356,14.356,0,0,1-3.291.583c-1.537.146-3.084.24-4.626.282a11.128,11.128,0,0,1-3.488-.306,4.189,4.189,0,0,1-2.675-2.12,2.036,2.036,0,0,1-.132-1.509,1.626,1.626,0,0,1,.287-.47c.254.531.437,1.236.6,1.49a3.05,3.05,0,0,0,2.04,1.471,5.068,5.068,0,0,0,1.88-.24c3.949-.978,8.147-.992,11.941-2.473a27.613,27.613,0,0,1,3.911-1.5,30.78,30.78,0,0,1,4.231-.343c2.228-.179,4.386-.851,6.581-1.2a4.78,4.78,0,0,1,.3,2.285Z" transform="translate(-284.966 -349.14)"/><path class="e" d="M623.406,525.3A7.924,7.924,0,0,1,621,529.583a28.035,28.035,0,0,0-3.371,3.686c-1.128,1.725-1.636,3.864-3.1,5.322a8.505,8.505,0,0,1-1.88,1.34,13.118,13.118,0,0,1-2.421,1.114,18.061,18.061,0,0,1-6.84.371,6.15,6.15,0,0,1-2.172-.418,6.545,6.545,0,0,1-.9-.555,4.31,4.31,0,0,1-1.41-1.41,1.411,1.411,0,0,1-.136-1.025,2.408,2.408,0,0,1,.654-1,15.51,15.51,0,0,1,1.655-1.49,9.9,9.9,0,0,0,2.153-1.88,6.074,6.074,0,0,0,.832-1.88,16.682,16.682,0,0,0,.606-3.6,11.406,11.406,0,0,1,.249-2.407c.348-1.241,1.269-2.35,1.166-3.634a.907.907,0,0,1,.047-.55.766.766,0,0,1,.432-.268,7.664,7.664,0,0,1,2.247-.522,2.619,2.619,0,0,1,2.087.818c.32.385.531.94,1,1.091a1.587,1.587,0,0,0,.715.028,5.986,5.986,0,0,0,3.291-1.011,4.1,4.1,0,0,0,1.363-2.995c0-.428-.193-.874.47-.94.5-.066.893.47,1.147.8a11.135,11.135,0,0,1,2.2,4.005,1.181,1.181,0,0,1,.418-.08,1.82,1.82,0,0,1,1.5.766A2.985,2.985,0,0,1,623.406,525.3Z" transform="translate(-356.968 -329.946)"/><path class="f" d="M623.606,530.547a7.924,7.924,0,0,1-2.407,4.287,28.035,28.035,0,0,0-3.371,3.686c-1.128,1.725-1.636,3.864-3.1,5.322a8.508,8.508,0,0,1-1.88,1.34,13.109,13.109,0,0,1-2.421,1.114,18.06,18.06,0,0,1-6.84.371,6.151,6.151,0,0,1-2.172-.418,6.543,6.543,0,0,1-.9-.555,4.311,4.311,0,0,1-1.41-1.41,3.435,3.435,0,0,1,1.41-.339c1.015.056,1.758,1.015,2.731,1.312,1.387.418,2.769-.559,4.174-.893a28.26,28.26,0,0,0,2.788-.47,6.889,6.889,0,0,0,2.064-1.25,10.506,10.506,0,0,0,2.2-2.125,13.658,13.658,0,0,0,1.293-2.581,36.917,36.917,0,0,1,2.614-5,3.54,3.54,0,0,1,.531-.7,7.4,7.4,0,0,1,.719-.522,5.463,5.463,0,0,0,1.659-3.027,5.3,5.3,0,0,1,.371-1.011,1.82,1.82,0,0,1,1.5.766A2.985,2.985,0,0,1,623.606,530.547Z" transform="translate(-357.169 -335.198)"/><path class="g" d="M439.473,208.906a9.971,9.971,0,0,1,2.821,3.291c.658,1.288,4.452,11.282,4.231,12.735,1.236-1.246,6.111-1.448,7.362-2.694.522-.522,3.338-3.126,3.761-3.733s3.563-1.88,3.907-2.52c1.283-2.3-9.1-11.01-7.771-13.28a.593.593,0,0,0,.108-.357.583.583,0,0,0-.174-.277,15.572,15.572,0,0,0-3-2.054,4.764,4.764,0,0,1-2.289-2.727,9.873,9.873,0,0,0-2.656,1.8q-2.858,2.449-5.618,5c-.719.668-2.111,1.556-2.444,2.51C437.311,207.618,438.787,208.347,439.473,208.906Z" transform="translate(-271.611 -160.124)"/><path class="e" d="M462.552,214.13a30.594,30.594,0,0,0-4.447,3.639,8.851,8.851,0,0,0-2.821,4.532c-.132.7-.113,1.41-.221,2.12-.47,3.079-3.131,5.336-4.306,8.217a14.246,14.246,0,0,0-.747,2.75,32.508,32.508,0,0,0-.541,5.4c-.028,1.753,1.692,2.962,2.322,4.6a28.078,28.078,0,0,1,1.119,5,59.212,59.212,0,0,0,2.821,9.261c2.318,6.4,9.83,24.1,12.147,30.509,7.1-1.782,26.011-5.876,32.3-9.632,2.1-1.25-14.55-15.358-12.307-16.331a.837.837,0,0,0,.63-1.18c-2.242-9.806-9.256-17.864-12.439-27.411-1.1-3.314-3.089-6.144-4.593-9.294-1.363-2.854-2.092-6.008-3.723-8.72a5.5,5.5,0,0,0-1.189-1.481,7.013,7.013,0,0,0-1.312-.794C464.315,214.854,463.45,214.586,462.552,214.13Z" transform="translate(-277.879 -169.048)"/><circle class="g" cx="11.118" cy="11.118" r="11.118" transform="translate(157.121 25.432)"/><path class="f" d="M466.4,205.977a3.728,3.728,0,0,1,4.179-.6,2.02,2.02,0,0,1,1.241,2.007l5.514.085a11.072,11.072,0,0,1,2.614.24,3.8,3.8,0,0,1,2.181,1.368c.066.089.141.2.254.212a.4.4,0,0,0,.254-.085,4.785,4.785,0,0,1,2.745-.47,14.83,14.83,0,0,1,8.072,3.545,2.609,2.609,0,0,1,.94,1.171c.193.625-.038,1.41.47,1.857,0,5.171,1.777,10,2.962,15.043a6.748,6.748,0,0,0,1.669,2.4,9.671,9.671,0,0,1,1.782,2.661c1.006,2.614-.381,5.688.6,8.311a14.239,14.239,0,0,0,1.88,2.985,7.72,7.72,0,0,1,1.608,3.855c.042.63-.038,1.265,0,1.88a11.385,11.385,0,0,0,.47,2.5q.6,2.275,1.26,4.546c.715,2.445,1.645,5.082,3.836,6.384-5.289.9-10.864,1.777-15.9-.061a8.247,8.247,0,0,1-1.984-.992c-1.819-1.3-2.7-3.516-3.483-5.613a26.5,26.5,0,0,1-1.941-7.244,8.317,8.317,0,0,0-.334-2.35c-.512-1.363-1.88-2.186-3.121-2.943a14.988,14.988,0,0,1-3.761-2.924,5.843,5.843,0,0,1-1.523-4.391c.094-.776.4-1.523.428-2.3a1.8,1.8,0,0,0-1.067-1.88c-3.85-1.166-5.688-5.726-6.544-9.656a31,31,0,0,1-.494-6.158l-.052-4.01a5.294,5.294,0,0,1-1.73-3.8,4.517,4.517,0,0,0-.023-1.26,3.474,3.474,0,0,0-.884-1.34,11.96,11.96,0,0,1-2.111-2.957Z" transform="translate(-286.851 -164.204)"/><path class="f" d="M440.337,230.405a30.806,30.806,0,0,1-.122,3.733c-.108.47-.3.94-.432,1.377a8.085,8.085,0,0,0,.512,5.232,29.137,29.137,0,0,0,2.675,4.63,7.525,7.525,0,0,1,.856,1.6,8.292,8.292,0,0,1,.329,1.829,56.808,56.808,0,0,0,1.307,7.39c.526,2.106,6.506,20.111,7.9,21.78a1.772,1.772,0,0,0,1.072.729,1.951,1.951,0,0,0,.912-.188l2.821-1.081a1.841,1.841,0,0,0,.653-.357,1.683,1.683,0,0,0,.4-1.109c.2-2.294-5.792-20.426-6.553-22.593-2.3-6.544-5.368-12.853-6.868-19.627-.418-1.88-.639-4.776-2.017-6.276-.569-.621-.376-.357-1.058-.033a7.719,7.719,0,0,0-1,.522A3.262,3.262,0,0,0,440.337,230.405Z" transform="translate(-272.63 -175.921)"/><path class="f" d="M556.62,320.79" transform="translate(-334.658 -225.567)"/><path class="h" d="M458.668,238.851c.757,4,1.537,7.992,2.313,11.992l11.038-2.891a7.758,7.758,0,0,0-.94-3.291c-1.006-2.524-1.03-5.336-1.843-7.931-.616-1.974-1.688-3.789-2.266-5.777-.334-1.156-.5-2.351-.832-3.521a25.583,25.583,0,0,0-1.3-3.361,21.045,21.045,0,0,0-2.407-4.461,7.019,7.019,0,0,0-3.718,2.412,5.207,5.207,0,0,0-.686,2.35c-.193,2.477.705,4.969.409,7.432a21.861,21.861,0,0,0,.23,7.047Z" transform="translate(-282.4 -171.951)"/><path class="f" d="M481.3,346.841c.621,2.35-.277,4.823-1.011,7.15a55.421,55.421,0,0,0-2.247,10.765,9.315,9.315,0,0,1-.555,2.722c-.348.785-.94,1.448-1.344,2.2-1.109,1.965-1.081,4.363-.841,6.61.16,1.481.4,2.957.7,4.414.362,1.782.809,3.643.287,5.383.874-.193,1.467.94,1.41,1.829s-.343,1.88.085,2.647c1.081.395,1.091,1.88,1.058,3.032a25.507,25.507,0,0,0,.752,5.923q2.454,11.8,5.209,23.533c3.972,1.232,8.612,2.515,12.4.809a2.487,2.487,0,0,0,1.57-1.58,2.755,2.755,0,0,0-.15-1.213l-1.8-6.534a12,12,0,0,1-.644-4.833c.174-1.208.7-2.51.108-3.577-.2-.367-.522-.653-.757-1-.94-1.377-.447-3.22-.371-4.889a3.874,3.874,0,0,0-.075-1.119,5.589,5.589,0,0,0-.536-1.227,18.766,18.766,0,0,1-2.068-9.336,2.308,2.308,0,0,0-.165-1.218,3.94,3.94,0,0,1-.306-.5,1.363,1.363,0,0,1,.1-.9,8.227,8.227,0,0,1-1.448-1.41,2.026,2.026,0,0,0,.348-3.168,1.058,1.058,0,0,0,.5-1.819c-.23-.16-.536-.23-.7-.47-.254-.348-.047-.832.16-1.2l1.1-1.979c.818-1.471,1-3.291,1.88-4.7a35.228,35.228,0,0,0,2.9-6.61l3.164-8.73,2.13,1.847a6.732,6.732,0,0,1,1.749,1.993,8.6,8.6,0,0,1,.569,2.388c.78,4.739,3.761,8.847,4.865,13.515a8.9,8.9,0,0,0,1.006,3.018,6.578,6.578,0,0,1,.573.865,4.586,4.586,0,0,1,.24,1.434,6.69,6.69,0,0,0,2.821,4.795c1.048.719,2.35,1.213,2.919,2.35a4.385,4.385,0,0,0,.47,1c.508.611,1.6.682,1.819,1.448.122.428-.1.94.136,1.316a1.245,1.245,0,0,0,.522.39l3.06,1.528c3.422,1.711,5.171,5.641,7.7,8.5a18.334,18.334,0,0,1,2.3,3.046c1.091,1.951,1.594,4.4,3.436,5.641a5.2,5.2,0,0,1,1.335.992c.578.762.367,1.829.418,2.788s.785,2.1,1.7,1.81a6.689,6.689,0,0,0,0,3.549,17.864,17.864,0,0,0,10.84-4.391,4.277,4.277,0,0,0,1.763-2.962,1.061,1.061,0,0,0-.132-.588,1.678,1.678,0,0,0-.691-.522c-2.863-1.551-3.723-5.148-5.171-8.067-1.265-2.576-3.136-4.8-4.7-7.188-3.4-5.148-5.726-11.376-10.873-14.775-1.133-.747-2.449-1.41-3.018-2.647-.315-.691-.352-1.481-.6-2.2a1.9,1.9,0,0,0-1.608-1.41,9.854,9.854,0,0,0,.367-3.413,4.309,4.309,0,0,0-.169-1.471,7.154,7.154,0,0,0-.757-1.457,13.981,13.981,0,0,1-1.937-7.522,12.335,12.335,0,0,0-.132-4.057c-.207-.653-.569-1.25-.818-1.88a11.754,11.754,0,0,1-.588-3.535l-.282-4.518a22.235,22.235,0,0,0-.583-4.466c-.94-3.507-1.88-18.2-5.1-19.852s-8.753,9.651-12.378,9.872a16.118,16.118,0,0,0-4.7.907,22.9,22.9,0,0,0-6.4,4.231l-6.666,5.6A24.564,24.564,0,0,1,481.3,346.841Z" transform="translate(-291.494 -226.726)"/><path class="f" d="M416.963,166.157A8.38,8.38,0,0,1,423.431,163a15.066,15.066,0,0,1,7.15,1.8,8.833,8.833,0,0,0,2.087.856c1.175.24,2.482-.08,3.544.47,1.41.747,1.683,2.651,1.561,4.231s-.418,3.333.423,4.7a10.859,10.859,0,0,1,.813,1.227,4.057,4.057,0,0,1-.066,2.614,16.95,16.95,0,0,1-1.349-1.725,1.589,1.589,0,0,0-1.946-.5c-.606.409-.6,1.152-.63,1.819s-.2,1.467-.832,1.683a1.349,1.349,0,0,1-1.41-.55c-1.077-1.316-.644-3.418-1.711-4.743-.606-.752-1.617-1.119-2.177-1.909-.442-.621-.555-1.41-.94-2.078s-1.283-1.156-1.88-.7a2.542,2.542,0,0,0-.5.672,2.891,2.891,0,0,1-3.432,1.034,5.74,5.74,0,0,0-1.486-.644,1.838,1.838,0,0,0-1.7.94,3.671,3.671,0,0,0-.47,1.965,4.528,4.528,0,0,1-.367,2.694,2.787,2.787,0,0,1-.752.715,2.341,2.341,0,0,1-2.6.268,1.955,1.955,0,0,1-.583-1.824,14.749,14.749,0,0,1,.555-1.927c.414-1.457-.127-3.1.324-4.471A14.272,14.272,0,0,1,416.963,166.157Z" transform="translate(-259.155 -141.951)"/><path class="h" d="M432.78,217.688a1.711,1.711,0,0,0,.1,1.02,1.622,1.622,0,0,0,.555.531,11.4,11.4,0,0,0,5.237,1.7,1.593,1.593,0,0,1,.724.188,1.273,1.273,0,0,1,.306,1.457,3.794,3.794,0,0,0-.334,1.551c.136.983,1.3,1.41,2.285,1.556a5.314,5.314,0,0,0,3.977-.776,6.143,6.143,0,0,0,1.641-2.459c2.7-6.2,3.643-13.055,6.375-19.236a4.081,4.081,0,0,0,.409-1.288,1.269,1.269,0,0,0-.508-1.185c-.508-.315-1.3-.136-1.641-.63-.169-.249-.15-.588-.3-.851-.315-.559-1.142-.47-1.706-.794-.442-.235-.747-.719-1.241-.813a1.561,1.561,0,0,0-1.283.555c-1.6,1.495-2.445,3.615-3.338,5.618a65.851,65.851,0,0,1-4.776,8.857c.212-.329-1.015-2.821-1.495-2.929-.841-.169-1.918,1.307-2.374,1.857a11.828,11.828,0,0,0-2.614,6.074Z" transform="translate(-269.017 -160.317)"/><path class="i" d="M463.242,200.32a2.252,2.252,0,0,0-1.744.874,4.974,4.974,0,0,0-.729,2.35A20.426,20.426,0,0,1,458,210.982" transform="translate(-282.4 -161.73)"/><path class="i" d="M468.464,204.31a2.684,2.684,0,0,0-2.28,1.368A7.685,7.685,0,0,0,465.61,208a12.744,12.744,0,0,1-2.28,4.884" transform="translate(-285.224 -163.844)"/><path class="j" d="M415.456,374.963v-5.839a16.209,16.209,0,0,0-16.209-16.2H168.669a16.209,16.209,0,0,0-16.209,16.2V379.89Z" transform="translate(-120.493 -242.593)"/><path class="k" d="M323.372,297.787s-.658,40.833,6.581,54.268S340.3,423.938,340.3,423.938s75.893,7.851,128.779-9.4,165.418-24.309,165.418-24.309L615.529,262.412s-93.686-6.008-146.981,19.41S323.372,297.787,323.372,297.787Z" transform="translate(-211.052 -194.304)"/><path class="i" d="M323.372,297.787s-.658,40.833,6.581,54.268S340.3,423.938,340.3,423.938s75.893,7.851,128.779-9.4,165.418-24.309,165.418-24.309L615.529,262.412s-93.686-6.008-146.981,19.41S323.372,297.787,323.372,297.787Z" transform="translate(-211.052 -194.304)"/><path class="k" d="M358.593,322.876s-2.374,33.692,3.582,44.457,6.233,58.823,6.233,58.823,68.3,3.168,116.885-13.37,150.681-27.266,150.681-27.266L624.373,281s-84.477-.87-133.78,22.41S358.593,322.876,358.593,322.876Z" transform="translate(-229.476 -204.477)"/><ellipse class="i" cx="17.732" cy="38.031" rx="17.732" ry="38.031" transform="translate(233.368 115.885) rotate(-7.1)"/><path class="c" d="M534.409,130.66s-91.016,23.035-133.936,63.581S267.2,253.986,267.2,253.986s11.9,39.06,22.913,49.628S322,368.863,322,368.863s74.638-15.823,119.673-48.486,149.994-73.914,149.994-73.914Z" transform="translate(-181.294 -124.817)"/><path class="k" d="M264.29,241.551s11.9,39.065,22.9,49.633,31.892,65.245,31.892,65.245,74.647-15.819,119.687-48.481,149.99-73.9,149.99-73.9L531.494,118.23s-91.011,23.035-133.931,63.581S264.29,241.551,264.29,241.551Z" transform="translate(-179.752 -118.23)"/><path class="i" d="M264.29,241.551s11.9,39.065,22.9,49.633,31.892,65.245,31.892,65.245,74.647-15.819,119.687-48.481,149.99-73.9,149.99-73.9L531.494,118.23s-91.011,23.035-133.931,63.581S264.29,241.551,264.29,241.551Z" transform="translate(-179.752 -118.23)"/><path class="k" d="M308,262.926s8.081,32.8,17.055,41.214S349.03,358.2,349.03,358.2,415,340.253,456.17,309.6s135.054-72.146,135.054-72.146L548.112,141.5s-80.664,25.089-120.449,62.377S308,262.926,308,262.926Z" transform="translate(-202.914 -130.561)"/><ellipse class="i" cx="17.732" cy="38.031" rx="17.732" ry="38.031" transform="translate(203.55 97.981) rotate(-24.97)"/><path class="i" d="M421.7,393.57V555.754a14.023,14.023,0,0,1-14.028,14.023H166.508a14.023,14.023,0,0,1-14.018-14.023V377.22c6.91,2.567,6.91,2.567,14.018,2.35h241.16a14.028,14.028,0,0,1,14.028,14Z" transform="translate(-120.509 -255.469)"/><path class="b" d="M421.7,397.955V560.139a14.028,14.028,0,0,1-14.028,14.023H166.508a14.023,14.023,0,0,1-14.018-14.023V381.6c6.91,2.562,6.91,2.562,14.018,2.35h241.16a14.028,14.028,0,0,1,14.028,14Z" transform="translate(-120.509 -257.79)"/><path class="i" d="M637.756,543.937V595.8h-50.3a25.934,25.934,0,1,1,0-51.868Z" transform="translate(-337.255 -343.812)"/><path class="j" d="M639.216,541v51.875h-50.3a25.934,25.934,0,1,1,0-51.868Z" transform="translate(-338.029 -342.257)"/><circle class="i" cx="10.112" cy="10.112" r="10.112" transform="translate(243.186 215.949)"/><circle class="l" cx="10.112" cy="10.112" r="10.112" transform="translate(243.873 214.576)"/><path class="m" d="M873.762,531.869c.4,4.33-2.877,8.532-1.923,12.773.207.907.6,1.763.738,2.68.395,2.52-1.1,4.9-2.539,7.009L857.722,572.4a11.212,11.212,0,0,1-1.758,2.172c-2.35,2.1-5.886,1.88-8.979,2.506a15.346,15.346,0,0,0-6.017,2.661.386.386,0,0,0-.057.527,5.171,5.171,0,0,0,4.476,2.1c.324.428,0,1.053-.47,1.359-.663.47-1.57.583-1.7,1.7a1.847,1.847,0,0,0,.226,1.128,3.5,3.5,0,0,0,2.153,1.5c4.264,1.3,8.871-.987,12.063-4.1s5.481-7.051,8.612-10.225c1.735-1.754,3.7-3.258,5.491-4.96a62.859,62.859,0,0,0,9.007-11.654,13,13,0,0,0,1.951-3.968c.339-1.443.179-2.9.559-4.3.5-1.833,1.838-3.291,2.952-4.828a15.973,15.973,0,0,0,3.357-10.394c-.287-3.7-2.586-7.366-6.083-8.626a5.406,5.406,0,0,0-3.408-.207,8.1,8.1,0,0,0-3.469,2.76l-2.35,2.7a6.338,6.338,0,0,0-1.363,2.068,2.167,2.167,0,0,0,.47,2.3" transform="translate(-485.263 -333.572)"/><path class="n" d="M873.762,531.869c.4,4.33-2.877,8.532-1.923,12.773.207.907.6,1.763.738,2.68.395,2.52-1.1,4.9-2.539,7.009L857.722,572.4a11.212,11.212,0,0,1-1.758,2.172c-2.35,2.1-5.886,1.88-8.979,2.506a15.346,15.346,0,0,0-6.017,2.661.386.386,0,0,0-.057.527,5.171,5.171,0,0,0,4.476,2.1c.324.428,0,1.053-.47,1.359-.663.47-1.57.583-1.7,1.7a1.847,1.847,0,0,0,.226,1.128,3.5,3.5,0,0,0,2.153,1.5c4.264,1.3,8.871-.987,12.063-4.1s5.481-7.051,8.612-10.225c1.735-1.754,3.7-3.258,5.491-4.96a62.859,62.859,0,0,0,9.007-11.654,13,13,0,0,0,1.951-3.968c.339-1.443.179-2.9.559-4.3.5-1.833,1.838-3.291,2.952-4.828a15.973,15.973,0,0,0,3.357-10.394c-.287-3.7-2.586-7.366-6.083-8.626a5.406,5.406,0,0,0-3.408-.207,8.1,8.1,0,0,0-3.469,2.76l-2.35,2.7a6.338,6.338,0,0,0-1.363,2.068,2.167,2.167,0,0,0,.47,2.3" transform="translate(-485.263 -333.572)"/><path class="o" d="M918.588,771.506c-2.689,1.641-6.041,1.739-9.167,1.359-.5-.061-1.1-.1-1.41.292-.47.564.085,1.41.658,1.848a13.563,13.563,0,0,0,6.295,2.59,41.456,41.456,0,0,0,6.158.409,104.122,104.122,0,0,0,16.834-.616,2.381,2.381,0,0,0,.94-.273,1.72,1.72,0,0,0,.7-1.058,4.2,4.2,0,0,0-1.462-4.005,12.274,12.274,0,0,0-3.925-2.106l-4.889-1.9c-1.147-.447-2.985-1.631-4.231-1.537C922.744,766.673,920.53,770.368,918.588,771.506Z" transform="translate(-520.768 -461.749)"/><path class="n" d="M918.588,771.506c-2.689,1.641-6.041,1.739-9.167,1.359-.5-.061-1.1-.1-1.41.292-.47.564.085,1.41.658,1.848a13.563,13.563,0,0,0,6.295,2.59,41.456,41.456,0,0,0,6.158.409,104.122,104.122,0,0,0,16.834-.616,2.381,2.381,0,0,0,.94-.273,1.72,1.72,0,0,0,.7-1.058,4.2,4.2,0,0,0-1.462-4.005,12.274,12.274,0,0,0-3.925-2.106l-4.889-1.9c-1.147-.447-2.985-1.631-4.231-1.537C922.744,766.673,920.53,770.368,918.588,771.506Z" transform="translate(-520.768 -461.749)"/><path class="f" d="M933.814,607.817c-2.036,2.708-4.142,5.834-3.638,9.186.273,1.805,1.283,3.4,2.026,5.068a35.753,35.753,0,0,1,2.05,7.127c.762,3.544,1.528,7.1,1.993,10.7.531,4.066-1.965,15.833-2.2,19.928a4.211,4.211,0,0,1-.86,2.764c-.268.282-.625.508-.747.874a1.5,1.5,0,0,0,.165,1.034,11.376,11.376,0,0,0,6.111,5.613c2.618,1.1,8.932,3,11.785,3.1a2.35,2.35,0,0,0,1.109-.146,2.158,2.158,0,0,0,.856-.983c2.045-3.911.08-17.817.108-22.231.028-3.681.9-7.338.738-11.014-.132-2.952-.94-5.839-1.208-8.781-.47-4.823.414-9.67,1.3-14.437.677-3.657,1.359-7.315,2.228-10.925a20.983,20.983,0,0,1,2.35-6.342c.94-1.518,2.261-2.788,3.357-4.231a19.1,19.1,0,0,0,3.761-13.981c-.066-.47-7.051,1.772-7.667,2.04a23.887,23.887,0,0,0-6.835,4.4,57.449,57.449,0,0,0-4.306,5.326q-3,3.662-5.933,7.376Q937.02,603.52,933.814,607.817Z" transform="translate(-532.566 -362.961)"/><path class="n" d="M933.814,607.493c-2.036,2.708-4.142,5.839-3.638,9.186.273,1.81,1.283,3.4,2.026,5.072a35.71,35.71,0,0,1,2.05,7.122c.762,3.549,1.528,7.1,1.993,10.7.531,4.071-1.965,15.833-2.2,19.927a4.224,4.224,0,0,1-.86,2.769c-.268.277-.625.5-.747.87a1.49,1.49,0,0,0,.165,1.034,11.514,11.514,0,0,0,6.111,5.641c2.618,1.128,8.932,2.111,11.785,2.2a2.348,2.348,0,0,0,1.109-.146,2.124,2.124,0,0,0,.856-.978c2.045-3.911.08-16.924.108-21.342.028-3.686.9-7.338.738-11.019-.132-2.952-.94-5.839-1.208-8.777-.47-4.828.414-9.675,1.3-14.441.677-3.653,1.359-7.31,2.228-10.925a20.983,20.983,0,0,1,2.35-6.341c.94-1.518,2.261-2.788,3.357-4.231a19.086,19.086,0,0,0,3.761-13.981c-.066-.47-7.051,1.772-7.667,2.04a24,24,0,0,0-6.835,4.4,56.778,56.778,0,0,0-4.306,5.322q-3,3.662-5.933,7.381Q937.02,603.192,933.814,607.493Z" transform="translate(-532.566 -362.802)"/><circle class="m" cx="11.409" cy="11.409" r="11.409" transform="translate(367.189 162.4)"/><path class="m" d="M899.419,484.486a14.775,14.775,0,0,0,9.473,6.61l-.86,3.126c-1.486,5.369-3.154,11.047-7.3,14.771a6.865,6.865,0,0,0-1.156-5.34A20.136,20.136,0,0,0,895.7,499.6l-6.567-5.688a1.978,1.978,0,0,1-.47-.555,1.669,1.669,0,0,1,0-1.25c.837-2.6,3.225-4.231,5.171-5.989a17.91,17.91,0,0,0,2.6-3.027C897.745,481.223,898.558,483.1,899.419,484.486Z" transform="translate(-510.544 -311.156)"/><path class="f" d="M854.644,453.24l-.258-2.144c1.8.47,3.511-1.062,4.663-2.647s2.219-3.45,3.972-4.113c2.129-.8,4.386.47,6.421,1.542a20.3,20.3,0,0,0,7.367,2.4,4.843,4.843,0,0,1,1.218.2c1.326.47,1.956,2.134,2.148,3.643s.141,3.112.795,4.457c.47,1.02,1.344,1.777,1.88,2.783,1.41,2.7.047,6.389,1.518,9.035l-3.657-3.352c-.334-.306-.8-.625-1.175-.367-.292.207-.315.653-.432,1.011a1.92,1.92,0,0,1-2.6.94,7.463,7.463,0,0,1-2.35-2.13,14.267,14.267,0,0,0-5.8-4.4,7.446,7.446,0,0,0-6.111.4c-1.706.964-2.957,3.211-5.049,3.291-2.867.108-4.062-5.232-5.387-7.343a2.585,2.585,0,0,0,.752-3.234C852.745,453.132,854.6,452.911,854.644,453.24Z" transform="translate(-491.075 -290.902)"/><path class="g" d="M553.489,318.623a22.2,22.2,0,0,0-2.534,2.661,5.327,5.327,0,0,0-1.166,3.418,1.749,1.749,0,0,0,.329,1,.846.846,0,0,0,.94.287,1.265,1.265,0,0,0,.47-.414,22.685,22.685,0,0,1,1.579-1.711c.2-.2.47-.414.743-.339a.8.8,0,0,1,.32.212,2.162,2.162,0,0,1,.663,1.034,2.437,2.437,0,0,1-.729,2,5.129,5.129,0,0,0-1.227,1.815.8.8,0,0,0,0,.583.874.874,0,0,0,.367.31,5.246,5.246,0,0,0,4.438.291c.94-.381,1.777-1.034,2.745-1.373a6.349,6.349,0,0,0,1.213-.47,2.52,2.52,0,0,0,1.077-1.612,6.647,6.647,0,0,0,.07-1.979,22.755,22.755,0,0,0-1.617-7.442.94.94,0,0,0-.273-.395.869.869,0,0,0-.47-.127c-1.2-.127-3.178-.743-4.339-.3a3.065,3.065,0,0,0-1.025.912C554.847,317.231,553.489,318.308,553.489,318.623Z" transform="translate(-331.038 -222.986)"/><path class="f" d="M537.824,269.887c0-1.147-1.41-3.916.832-4.1,0-1.227-1.735-1.988-1.41-3.291.1-.432.47-.785.512-1.227.141-1.255-2.125-1.937-1.749-3.14.141-.47.639-.743.747-1.208.254-1.086-1.688-1.57-1.725-2.684,0-.376.212-.729.193-1.1,0-.47-.409-.827-.635-1.236-.588-1.048-.3-2.67-1.373-3.211.71.061.94-.992.649-1.636s-.889-1.2-.893-1.918a2.9,2.9,0,0,0,0-.78c-.2-.686-1.321-.743-1.509-1.41a5.988,5.988,0,0,1-.023-.771c-.075-.531-.621-.87-1.133-1.02a4.62,4.62,0,0,1-1.514-.541c-.329-.249-.71-.663-1.062-.47-.132.08-.2.23-.3.343-.423.494-1.232.277-1.763-.085a7.241,7.241,0,0,1-2.684-4.847c-.334-1.866-.324-3.794-.743-5.641a12.059,12.059,0,0,0-.508-1.692,8.906,8.906,0,0,1-.79-1.683c-.085-1.081,2.153-.343,3-.235a13.377,13.377,0,0,1,2.44.47,26.076,26.076,0,0,1,2.5,1.1c3.394,1.5,7.493,1.683,10.22,4.2.9.827,1.655,1.913,2.82,2.289a12.753,12.753,0,0,1,1.58.409c1.293.606,1.495,2.322,2.2,3.563a6.99,6.99,0,0,1,.578,1.034,3.981,3.981,0,0,1,.188,1.316l.1,3.258a120.131,120.131,0,0,1-.263,16.355,13.409,13.409,0,0,0,.061,5.354c.141.47.339.912.47,1.387a8.46,8.46,0,0,1,.179,1.692l.075,2.111a.658.658,0,0,1-.1.47.677.677,0,0,1-.569.136c-2.938-.263-5.909-1.918-8.683-.917" transform="translate(-315.754 -175.313)"/><ellipse class="b" cx="34.768" cy="5.025" rx="34.768" ry="5.025" transform="translate(321.383 246.708)"/><path class="p" d="M783.8,400.706c-.611-2.618-.992-4.917-.992-4.917a10.133,10.133,0,0,0-1.138-4.988v-.715h0v-5.265a17.942,17.942,0,0,1,1.33-2.759c.94-1.655,0-7.719,0-7.719s-3.512-8.551-2.661-13.976-7.211-24.088-7.211-24.088a23.785,23.785,0,0,1,.757-5.331,4.063,4.063,0,0,0,.1-1.119v-.094c-.122-3.577-2.952-10.281-2.952-10.281l.381-12.777s1.805-7.522-1.138-17.652c-1.029-3.53-1.688-6.356-2.106-8.537-.047-.244-.094-.47-.132-.71,6.06-.94,10.69-1.692,10.69-1.692s-3.516-14.709-5.89-17.285-4.273-10.667-4.273-10.667-1.236-10.384.762-13.421,2.28-8.274,2.28-8.274,4.555-3.291,5.129-4.781a24.389,24.389,0,0,0,1.518-6.525c0-1.744-.569-3.291-.381-4.231s-1.33-4.414-.569-6.069a4.454,4.454,0,0,0,.3-1.594.209.209,0,0,0,0-.047h0a22.341,22.341,0,0,0-.4-4.316,12.246,12.246,0,0,0-4.513-2.412l-.1-.395-.258-1.034a5.044,5.044,0,0,0-.447-.263V196.4l-.042-1.495.714-3.356c1.41-5.839-6.389-6.708-6.389-6.708a4.113,4.113,0,0,0-2.209-1.937c-1.565-.55-.259,8.781.47,9.4a36.762,36.762,0,0,1,3.074,4.814h0l.132.235a3.294,3.294,0,0,0-.357.376l.3,2.026.047.31a8.408,8.408,0,0,0-1.246,2.12,4.574,4.574,0,0,1,1.142,3.291,10.541,10.541,0,0,0,.47,4.043c-.085-.1-1.086-1.18-2.087-.917s-3.8,1.1-3.8,1.1-2.087.367-1.88.827-1.41,2.482-1.41,2.482l-5.613-5.322c-.056-.16-.118-.32-.164-.47a12.951,12.951,0,0,1-.47-2.35,12.836,12.836,0,0,0,1.8-.569,3.874,3.874,0,0,0,1.551-1,6.015,6.015,0,0,0,.907-2.421,35.593,35.593,0,0,1,2.083-4.645,15.1,15.1,0,0,0,1.058-8.358,5.453,5.453,0,0,0-.86-2.445c-.917-1.26-2.581-1.772-3.789-2.778s-1.989-2.543-3.4-3.291a6.741,6.741,0,0,0-4.259-.367,22.955,22.955,0,0,0-7.959,2.9,4.143,4.143,0,0,1-2.661.874,3.474,3.474,0,0,1-1.918-1.41.093.093,0,0,0-.038-.15,9.914,9.914,0,0,0-.874,4.2,5.188,5.188,0,0,0,.028.672v.428h0a1.069,1.069,0,0,1-.042.3,2.138,2.138,0,0,1-.527.757,5.084,5.084,0,0,0-.47.625.776.776,0,0,1,.075-.23,3.342,3.342,0,0,0-.583,1.772,1.81,1.81,0,0,0,.423,1.269,6.1,6.1,0,0,0,.917.733,10.692,10.692,0,0,0-.169,1.88,10.864,10.864,0,0,0,5.293,9.266c.066.155.127.315.188.47a13.385,13.385,0,0,1,1.02,6.111,2.866,2.866,0,0,1-.066.442c-.024.146-.141.155-.2.235h0s-9.275.094-11.456-1.88-5.509,4.828-5.509,4.828-3.324.644-3.991,0-4.555-.089-4.555-.089a8.382,8.382,0,0,0-5.8-2.115,17.013,17.013,0,0,0-4.231-2.351h0l-.1-.038h0a4.739,4.739,0,0,0-2.092-.263s-4.56-3.761-5.89-5.792-7.663-9.529-7.691-9.562v-.362l-.07-1.091a3.91,3.91,0,0,1-.569.047c-.033-.108-.08-.235-.127-.381a21.031,21.031,0,0,0-1.344-3.089s0-1.377.4-1.725-.164-5.4-.164-5.4-4.109-9.6-7.79-2.435c0,0-6.957,4.64-1.119,10.046,0,0,2.351,1.128,2.661,2.021.216.578,1.006,2.2,1.537,3.291l.24.47-.066.056.085.9.038.348c-1.1.625-1.847,1.246-1.664,1.711a10.283,10.283,0,0,1,.663,2.482s8.076,10.117,9.12,14.437c0,0,21.657,12.871,28.779,13.788l-1.26,6.417a51.212,51.212,0,0,0-.282,5.242c.094,1.377-.856,7.63-.856,7.63s-1.236,9.2-2.28,10.483-.856,6.8-.856,6.8a46.478,46.478,0,0,1-1.41,7.813,19.963,19.963,0,0,0-.287,7.818s-3.606,8.274,5.035,2.665c0,0,4.231-.263,9.129-.432v.47c0,.63,0,1.312-.033,2.026-.066,4.739-.094,11.282.122,16.209.381,8.734,3.042,26.02,3.042,26.02v8.7a11.851,11.851,0,0,0-.254,2.482,16.152,16.152,0,0,0,2.351,8.692l.667,5.792a22.591,22.591,0,0,1,1.589,6.111,3.2,3.2,0,0,1-.066.55,3.7,3.7,0,0,0-.075.889c-.089,2.632,1.495,8.932,1.495,8.932s.094,6.342,1.044,6.713c.813.315-1.086,3.653-1.65,4.612a1.325,1.325,0,0,1-.033-.179l-.117.188a4.5,4.5,0,0,0-.3,1.608,2.3,2.3,0,0,0,1.053,2.228c1.805,1.1,2.774,2.021,1.241,2.388a15.957,15.957,0,0,0-1.674.353.725.725,0,0,0-.08-.212,1.006,1.006,0,0,0-.625,1.109,4.7,4.7,0,0,0,.56,2.134,23.284,23.284,0,0,0,2.571,4.7l.729-.08a3.553,3.553,0,0,1-.423.785,3.027,3.027,0,0,1-1.072.94,3.319,3.319,0,0,1-1.3.447,3.666,3.666,0,0,0-2.689,1.307c-.94,1.227-1.542,2.9.329,4.363l6.793,2.35s11.687,1.518,11.066-1.1-1-4.917-1-4.917a10.366,10.366,0,0,0-.94-4.649,6.068,6.068,0,0,0-.414-.686l.414-.042s.856-5.8,1.993-6.9c.263-.254.324-.47.263-.6.117-.315-.183-.5-.564-.606l-.085.23a5.541,5.541,0,0,0-1.133-.127s-.381-3.032.856-4.137a1.171,1.171,0,0,0,.24-.9,4.847,4.847,0,0,0-.132-1.236.6.6,0,0,1-.042.075,44.54,44.54,0,0,0-2.727-7.131s-.094-2.755.668-3.86-.1-14.987-.1-14.987.287-6.708-.569-9.834,1.044-6.807,1.044-6.807V336.6l-.108-1.058a.27.27,0,0,0,0,.066c-.193-1.777-.555-5-.823-6.483-.381-2.115.1-12.223.1-12.223l1.706-4.325,3.042,7.451,3.23,9.929a8.482,8.482,0,0,1,1.636,4.231v.31a5.418,5.418,0,0,0-.038.663,5.9,5.9,0,0,0,.982,3.54s.856,4.7,2.186,5.881a5.278,5.278,0,0,1,1.33,3.493s1.612,6.807,2.35,7.992c.639,1.006.672,3.761.668,4.621h0v.244s.226,2.435.216,4.475v.729a.209.209,0,0,0,0-.052,7.082,7.082,0,0,1-.2,1.655l-.028.094a1.2,1.2,0,0,1,.033-.343,17.274,17.274,0,0,0-.47,4.231c-.042,2.445.329,5.34,1.81,7.052,2.567,2.943,4.179,2.576,4.179,2.576s-1.232,3.676-2.755,4.414a.716.716,0,0,0-.16.1,1.586,1.586,0,0,0-.038-.216,1.791,1.791,0,0,0-.47,1.373,9.861,9.861,0,0,0,1.88,5.448,3.07,3.07,0,0,0,1.283.752,2.035,2.035,0,0,1-.24.146,5.121,5.121,0,0,1-.522.249,2.739,2.739,0,0,1-.776.2,3.62,3.62,0,0,0-2.689,1.307c-.94,1.222-1.542,2.891.329,4.358l6.793,2.35S784.416,403.325,783.8,400.706Z" transform="translate(-397.741 -148.729)"/><path class="q" d="M802.034,648.95l-6.581-2.351c-1.815-1.467-1.236-3.136-.32-4.362a3.516,3.516,0,0,1,2.6-1.307,3.122,3.122,0,0,0,1.255-.447,3.008,3.008,0,0,0,1.044-.94,4.856,4.856,0,0,0,.747-2.543s7.221-2.115,9.2,0a5.341,5.341,0,0,1,.874,1.283,10.74,10.74,0,0,1,.94,4.649s.367,2.294.964,4.917S802.034,648.95,802.034,648.95Z" transform="translate(-460.588 -392.629)"/><path class="q" d="M870.474,642.04l-6.581-2.351c-1.815-1.467-1.236-3.136-.32-4.358a3.474,3.474,0,0,1,2.6-1.307,2.443,2.443,0,0,0,.752-.2,4.979,4.979,0,0,0,.508-.249c1.838-1.011,1.791-3.493,1.791-3.493s7.216-2.115,9.2,0a5.217,5.217,0,0,1,.691.94,10.445,10.445,0,0,1,1.1,4.992s.367,2.3.94,4.917S870.474,642.04,870.474,642.04Z" transform="translate(-496.854 -388.962)"/><path class="i" d="M816.5,636.989a5.351,5.351,0,0,1,.874,1.283h0l-10.812,1.255a4.857,4.857,0,0,0,.747-2.543S814.523,634.873,816.5,636.989Z" transform="translate(-467.102 -392.622)"/><path class="i" d="M883.885,631.04v2.026c-1.683,2.769-9.82,2.162-12.185.776a5,5,0,0,0,.508-.249C874.046,632.582,874,630.1,874,630.1s7.216-2.115,9.2,0a5.219,5.219,0,0,1,.691.94Z" transform="translate(-501.62 -388.973)"/><path class="f" d="M838.405,493.429a18.429,18.429,0,0,0-1.283,2.759v7.263c-1.843,3.032-11.4,2.021-12.693.367s-2.642-5.961-1.189-6.708,2.665-4.414,2.665-4.414-1.565.367-4.047-2.576-1.744-9.468-1.283-11.029,0-6.8,0-6.8.094-3.681-.639-4.875-2.3-7.992-2.3-7.992a5.411,5.411,0,0,0-1.288-3.493c-1.288-1.194-2.115-5.886-2.115-5.886a6.03,6.03,0,0,1-.917-3.953c.272-2.3-1.566-4.781-1.566-4.781l-3.126-9.933-2.943-7.446-1.655,4.32s-.47,10.112-.089,12.223.94,7.724.94,7.724-1.838,3.676-1.011,6.8.527,9.844.527,9.844.827,13.877.089,14.982-.644,3.864-.644,3.864,3.761,8.086,2.576,9.19-.827,4.137-.827,4.137,2.571,0,1.471,1.1-1.932,6.9-1.932,6.9l-11.118,1.3a23.114,23.114,0,0,1-2.487-4.7c-1.471-3.418.273-3.032,1.753-3.4s.545-1.283-1.2-2.388-.733-3.587-.733-3.587,2.665-4.5,1.744-4.87-1.011-6.713-1.011-6.713-1.838-7.522-1.378-9.562-1.471-6.892-1.471-6.892l-.644-5.792a15.937,15.937,0,0,1-2.022-10.944v-8.932s-2.576-17.281-2.943-26.015c-.235-5.594-.169-13.228-.094-17.991.047-2.67.094-4.442.094-4.442l39.714-4.137a33.183,33.183,0,0,0,.719,5.9c.409,2.181,1.044,5.007,2.04,8.537,2.849,10.112,1.1,17.647,1.1,17.647l-.371,12.782s3.493,8.546,2.759,11.489a24.507,24.507,0,0,0-.743,5.34s7.813,18.663,6.986,24.088,2.571,13.976,2.571,13.976S839.327,491.774,838.405,493.429Z" transform="translate(-454.857 -260.095)"/><path class="n" d="M852.05,510.882l12.091-1.612S857.292,516.26,852.05,510.882Z" transform="translate(-491.207 -325.443)"/><path class="i" d="M871.565,484.14s.414,4.278-2.2,5.886C869.36,490.026,874.047,489.292,871.565,484.14Z" transform="translate(-500.38 -312.126)"/><path class="i" d="M856.36,455.2s-10.107,8.321-13.783,7.63S856.36,455.2,856.36,455.2Z" transform="translate(-485.918 -296.791)"/><path class="i" d="M811.252,521s-7.677,1.744-7.907,4.828S811.252,521,811.252,521Z" transform="translate(-465.396 -331.659)"/><path class="n" d="M814.386,602.56s-10.845,2.021-7.766,3.4a52.646,52.646,0,0,0,8.137,2.482S818.259,608.624,814.386,602.56Z" transform="translate(-466.842 -374.877)"/><g class="r" transform="translate(328.593 129.705)"><path d="M801.007,612.68a2.139,2.139,0,0,1-.992-1.57l-.113.193s-1.011,2.482.738,3.582c.2.127.39.254.564.376.324-.061.672-.108,1.006-.193C803.692,614.7,802.756,613.785,801.007,612.68Z" transform="translate(-792.013 -509.113)"/><path d="M831.728,610.76c.3-.273.291-.978.108-1.88a5.285,5.285,0,0,0-.616,2.661A2.3,2.3,0,0,1,831.728,610.76Z" transform="translate(-808.763 -507.931)"/><path d="M827.923,515.59a12.542,12.542,0,0,0-.733,3.38,13.639,13.639,0,0,1,.842-2.322Z" transform="translate(-806.627 -458.497)"/><path d="M881.362,504.2a4.317,4.317,0,0,0,.1-1.006c-.136.686-.23,1.321-.3,1.88C881.221,504.784,881.287,504.511,881.362,504.2Z" transform="translate(-835.226 -451.926)"/><path d="M827.909,582.815a5.9,5.9,0,0,0,.273-2.045,6.943,6.943,0,0,0-.531,2.581,2.465,2.465,0,0,1,.259-.536Z" transform="translate(-806.871 -493.036)"/><path d="M815.189,622a36.478,36.478,0,0,0-1.265,5.641l-11.118,1.283a23.125,23.125,0,0,1-2.487-4.7,8.48,8.48,0,0,1-.315-.809c-.668.306-.94,1-.056,3.013a23.492,23.492,0,0,0,2.492,4.7l11.118-1.288s.827-5.792,1.927-6.9C816.05,622.414,815.7,622.136,815.189,622Z" transform="translate(-791.895 -514.883)"/><path d="M792.076,484.747s.089,6.342,1.011,6.708h0c.47-1.048.776-2.045.362-2.21-.94-.367-1.011-6.713-1.011-6.713s-1.838-7.522-1.377-9.562-1.471-6.892-1.471-6.892l-.644-5.792a15.936,15.936,0,0,1-2.021-10.944v-8.932s-2.576-17.281-2.943-26.015c-.235-5.594-.169-13.229-.094-17.991,0-.86.028-1.622.042-2.266l-.315.033s-.052,1.768-.094,4.442c-.075,4.762-.146,12.4.094,17.986.367,8.734,2.938,26.02,2.938,26.02v8.932a15.946,15.946,0,0,0,2.026,10.939l.639,5.792s1.932,4.87,1.471,6.9S792.076,484.747,792.076,484.747Z" transform="translate(-783.448 -394.14)"/><path d="M868.943,626.537a10.752,10.752,0,0,1-1.763-4.367c-1.133,1.025.169,5,1.41,6.581,1.283,1.655,10.845,2.665,12.693-.371v-1.749C878.778,629.09,870.156,628.1,868.943,626.537Z" transform="translate(-827.588 -514.973)"/><path d="M899.688,609.291a18.59,18.59,0,0,0-1.288,2.759v1.3a19.305,19.305,0,0,1,.94-1.843,5.639,5.639,0,0,0,.4-2.28S899.7,609.272,899.688,609.291Z" transform="translate(-844.361 -508.117)"/><path d="M866.684,597.136a18.172,18.172,0,0,0,.907-2.186s-1.565.367-4.048-2.576c-1.805-2.139-1.909-6.182-1.65-8.824-.47,1.565-1.2,8.09,1.283,11.033C864.8,596.506,866.026,597.014,866.684,597.136Z" transform="translate(-824.765 -494.509)"/><path d="M844.117,512.078a48.959,48.959,0,0,1,.183,5.448,7.432,7.432,0,0,1,.188-.851c.47-1.565,0-6.8,0-6.8s.094-3.681-.644-4.875-2.275-8-2.275-8a5.411,5.411,0,0,0-1.288-3.493c-1.288-1.194-2.115-5.886-2.115-5.886a6.05,6.05,0,0,1-.94-3.954c.277-2.3-1.561-4.781-1.561-4.781l-3.126-9.929L829.6,461.51l-1.659,4.325s0,.545-.056,1.41l1.345-3.512,2.943,7.432,3.126,9.928s1.838,2.482,1.561,4.781a6.051,6.051,0,0,0,.94,3.954s.827,4.7,2.115,5.886a5.381,5.381,0,0,1,1.283,3.493s1.565,6.8,2.3,7.992S844.117,512.078,844.117,512.078Z" transform="translate(-806.993 -429.839)"/></g><path class="s" d="M868.656,199.519l-.691,3.357.042,1.495.028,1.1-3.836.395-.428-.794h0a35.618,35.618,0,0,0-2.976-4.814c-.71-.592-1.974-9.928-.47-9.374a4.011,4.011,0,0,1,2.134,1.932S870.014,193.68,868.656,199.519Z" transform="translate(-495.219 -156.717)"/><path class="i" d="M872.714,220.194l-3.836.395-.428-.794h0a3.38,3.38,0,0,1,4.231-.7Z" transform="translate(-499.898 -171.44)"/><path class="d" d="M873.433,222.406l-5.058,1.171-.108-.752-.287-2.026a3.481,3.481,0,0,1,4.9-.668l.254,1.03Z" transform="translate(-499.649 -171.833)"/><path class="s" d="M691.542,191.872l-5.4,2.9-.47-1.015c-.512-1.077-1.279-2.7-1.49-3.291-.32-.893-2.571-2.021-2.571-2.021-5.641-5.4,1.081-10.046,1.081-10.046,3.563-7.169,7.522,2.435,7.522,2.435s.555,5.063.165,5.4-.39,1.725-.39,1.725a21.214,21.214,0,0,1,1.3,3.089C691.452,191.557,691.542,191.872,691.542,191.872Z" transform="translate(-399.695 -148.703)"/><path class="i" d="M698.662,209.1l-5.4,2.9-.47-1.015c.761-.639,3.465-2.821,4.353-2.731a6.508,6.508,0,0,0,1.279.033C698.572,208.783,698.662,209.1,698.662,209.1Z" transform="translate(-406.815 -165.929)"/><path class="d" d="M699.376,211.147l-6.069,2.99-.122-1.3-.085-.9s3.516-3.013,4.555-2.9a5.524,5.524,0,0,0,1.584,0l.071,1.091Z" transform="translate(-406.979 -166.347)"/><path class="s" d="M822.607,233.594s-26.457,2.985-21.512,1.377c3.441-1.124,4.809-3.291,5.1-5.735a13.777,13.777,0,0,0-.983-6.111,26.648,26.648,0,0,0-2.351-4.781s20.214-11.123,16.176-1.011a16.306,16.306,0,0,0-1.147,4.79,13.533,13.533,0,0,0,.522,4.851,14.446,14.446,0,0,0,4.2,6.619Z" transform="translate(-463.88 -168.495)"/><path class="i" d="M821.7,217.3a16.3,16.3,0,0,0-1.147,4.79c-1.9,1.6-3.991,1.495-6.675,1.495-2.059,0-4.344.5-5.989-.494a26.638,26.638,0,0,0-2.35-4.781S825.75,207.192,821.7,217.3Z" transform="translate(-466.562 -168.479)"/><circle class="s" cx="10.939" cy="10.939" r="10.939" transform="translate(336.021 33.936)"/><path class="i" d="M822.607,247.946s-26.457,2.985-21.512,1.377c3.441-1.124,4.809-3.291,5.1-5.735,1.316-1.41,3.963-2.459,5.641-3a7.916,7.916,0,0,1,4.8-.08,6.814,6.814,0,0,1,1.744.809A14.446,14.446,0,0,0,822.607,247.946Z" transform="translate(-463.88 -182.847)"/><path class="i" d="M873.756,224.206l-5.058,1.171-.108-.752a4.475,4.475,0,0,1,4.866-1.664Z" transform="translate(-499.972 -173.632)"/><path class="i" d="M699.471,212.375l-6.069,2.99-.122-1.3a44.266,44.266,0,0,1,6.111-2.712Z" transform="translate(-407.075 -167.574)"/><path class="i" d="M824.127,391.87c-10.253,1.636-24.826,3.723-27.139,3.018-1.923-.583-8.053-.522-13.388-.338.047-2.67.094-4.442.094-4.442l39.714-4.137A33.189,33.189,0,0,0,824.127,391.87Z" transform="translate(-454.936 -260.106)"/><path class="o" d="M784.692,297.339s-33.739,5.792-37.359,4.7-22.212.089-22.212.089c-8.368,5.608-4.875-2.665-4.875-2.665a20.568,20.568,0,0,1,.277-7.813,47.751,47.751,0,0,0,1.387-7.822s-.183-5.519.827-6.807,2.209-10.478,2.209-10.478.917-6.252.827-7.63.273-5.242.273-5.242l1.2-6.436c-6.9-.917-27.858-13.788-27.858-13.788-1.011-4.32-8.824-14.432-8.824-14.432a10.643,10.643,0,0,0-.644-2.482c-.55-1.471,7.724-4.414,7.724-4.414s6.158,7.522,7.446,9.562,5.7,5.792,5.7,5.792a4.433,4.433,0,0,1,2.021.263l.108.033h0a16.389,16.389,0,0,1,4.113,2.35,7.992,7.992,0,0,1,5.608,2.115s3.761-.555,4.414.089,3.859,0,3.859,0,3.216-6.8,5.331-4.828,11.09,1.88,11.09,1.88c1.194-1.589,4.1-2.727,5.923-3.291a7.95,7.95,0,0,1,4.8-.08,6.081,6.081,0,0,1,1.88.94l5.458,5.331s1.561-2.026,1.377-2.482,1.838-.827,1.838-.827,2.665-.827,3.676-1.1,1.937.818,2.021.917a10.992,10.992,0,0,1-.47-4.043,4.776,4.776,0,0,0-1.1-3.291c3.215-7.907,10.479-1.288,10.479-1.288s.827,4.32.094,5.975.733,5.148.55,6.069.371,2.482.371,4.231a25.85,25.85,0,0,1-1.472,6.525c-.531,1.471-4.964,4.781-4.964,4.781s-.277,5.242-2.21,8.274-.719,13.4-.719,13.4,1.838,8.09,4.137,10.667S784.692,297.339,784.692,297.339Z" transform="translate(-405.281 -167.982)"/><path class="i" d="M781.748,258.388s-1.011-3.032-1.932-3.291a21.255,21.255,0,0,1-2.665-1.194l.592-1.133s3.451.94,4.005,1.96S781.748,258.388,781.748,258.388Z" transform="translate(-451.518 -189.523)"/><path class="i" d="M738.188,247.742c-.183.94-8.368,1.744-8.368,1.744l4.137-4.146h0l.1.038h0A16.388,16.388,0,0,1,738.188,247.742Z" transform="translate(-426.437 -185.586)"/><circle class="t" cx="0.733" cy="0.733" r="0.733" transform="translate(287.343 48.806)"/><circle class="t" cx="0.733" cy="0.733" r="0.733" transform="translate(288.283 50.277)"/><circle class="t" cx="0.733" cy="0.733" r="0.733" transform="translate(289.204 51.636)"/><circle class="t" cx="0.733" cy="0.733" r="0.733" transform="translate(290.168 53.102)"/><circle class="t" cx="0.597" cy="0.597" r="0.597" transform="translate(376.962 53.159)"/><circle class="t" cx="0.597" cy="0.597" r="0.597" transform="translate(377.056 54.517)"/><circle class="t" cx="0.597" cy="0.597" r="0.597" transform="translate(377.136 55.871)"/><path class="i" d="M787,317.72c-.089-.108,20.637,26.062,36.724,10.939C823.738,328.663,798.32,332.109,787,317.72Z" transform="translate(-456.737 -223.94)"/><path class="i" d="M761.7,346.66s12.4.339,13.7,3.907v3.714a2.379,2.379,0,0,1-2.308,0c-1.25-.677-8.748-4.485-11.39-2.651Z" transform="translate(-443.331 -239.275)"/><path class="o" d="M762.19,346.66s11.86.324,13.1,3.728v3.535a2.275,2.275,0,0,1-2.209,0c-1.194-.639-8.363-4.273-10.892-2.524Z" transform="translate(-443.59 -239.275)"/><path class="i" d="M776.1,289.38a39.9,39.9,0,0,0,4.809,8.25,32.369,32.369,0,0,0,7.521,7.272S776.307,291.082,776.1,289.38Z" transform="translate(-450.961 -208.923)"/><path class="i" d="M767.47,258.73s2.068,8.932,7.4,11.964Z" transform="translate(-446.388 -192.681)"/><path class="i" d="M760.512,260.647c-.052-.165-1.838,7.051,6.873,11.061C767.385,271.708,763.685,270.453,760.512,260.647Z" transform="translate(-442.603 -193.695)"/><path class="i" d="M875.906,247.9c-.136,0,4.3,2.821,5.5,4.137C881.411,252.04,878.525,247.715,875.906,247.9Z" transform="translate(-503.847 -186.941)"/><path class="q" d="M805.975,206.948a1.725,1.725,0,0,0,1.88,1.706c3.333.207,6.807.353,9.872-.94a3.762,3.762,0,0,0,1.5-1,6.185,6.185,0,0,0,.874-2.421,35.205,35.205,0,0,1,2.017-4.645,15.56,15.56,0,0,0,1.086-8.344,5.642,5.642,0,0,0-.837-2.44c-.884-1.265-2.5-1.777-3.667-2.783s-1.923-2.543-3.291-3.291a6.318,6.318,0,0,0-4.127-.367,21.667,21.667,0,0,0-7.7,2.891,3.928,3.928,0,0,1-2.576.874,3.446,3.446,0,0,1-1.88-1.453,10.185,10.185,0,0,0-.785,4.771,2.051,2.051,0,0,1-.023.719,2.164,2.164,0,0,1-.512.757c-.823.94-1.335,2.468-.522,3.436.353.418.9.649,1.241,1.077.616.766.409,1.88.395,2.858a1.471,1.471,0,0,0,.244.968,1.41,1.41,0,0,0,1.349.324,3.671,3.671,0,0,1,1.438-.136,2.412,2.412,0,0,1,1.251.94A17.669,17.669,0,0,1,805.975,206.948Z" transform="translate(-461.971 -152.158)"/><g class="u" transform="translate(334.906 32.484)"><path d="M819.622,216.188a3.762,3.762,0,0,1-1.5,1c-3.084,1.283-6.553,1.138-9.872.94a1.73,1.73,0,0,1-1.885-1.711,17.15,17.15,0,0,0-2.788-6.469,2.416,2.416,0,0,0-1.25-.964,3.855,3.855,0,0,0-1.438.136,1.41,1.41,0,0,1-1.349-.32,1.471,1.471,0,0,1-.244-.968c0-.987.221-2.092-.395-2.858-.343-.428-.888-.658-1.241-1.081a2.143,2.143,0,0,1-.211-2.191,2.506,2.506,0,0,0-.155,2.929c.353.418.9.649,1.241,1.076.616.771.409,1.88.4,2.858a1.462,1.462,0,0,0,.24.968,1.411,1.411,0,0,0,1.354.324,3.671,3.671,0,0,1,1.438-.136,2.411,2.411,0,0,1,1.251.94,17.182,17.182,0,0,1,2.788,6.473,2.351,2.351,0,0,0,.813,1.49,2.28,2.28,0,0,0,1.034.226c3.333.207,6.807.357,9.872-.94a3.724,3.724,0,0,0,1.5-1,2.871,2.871,0,0,0,.47-.884A.232.232,0,0,1,819.622,216.188Z" transform="translate(-796.877 -194.945)"/><path d="M799.965,192.633a1.609,1.609,0,0,0,.334-.555,2.048,2.048,0,0,0,0-.719,10.2,10.2,0,0,1,.512-3.958l-.061-.071a10.108,10.108,0,0,0-.785,4.767,3.386,3.386,0,0,1,0,.536Z" transform="translate(-798.497 -187.33)"/></g><path class="i" d="M812.08,248.61s13.666,1.815,14.893-.24" transform="translate(-470.027 -187.191)"/><path class="i" d="M868.59,236.85s7.6,0,9.266,2.858" transform="translate(-499.972 -181.087)"/><path class="o" d="M947.676,769.586a12.049,12.049,0,0,1-8.2,3.065c-.771,0-1.838.146-1.843.917a1.291,1.291,0,0,0,.226.63,7.545,7.545,0,0,0,4.231,3.324,14.954,14.954,0,0,0,5.119.324l5.006-.259c.94-.052,1.88-.1,2.821-.216s1.965-.31,2.947-.47a38.549,38.549,0,0,1,7.291-.339,2.207,2.207,0,0,0,1.8-.47c.386-.47.188-1.368.042-2.073-.3-1.453,0-2.976-.277-4.433-.47-2.557-2.684-4.518-5.11-5.444-2.256-.856-6.252-1.838-8.387-.409C951.084,765.233,949.707,767.739,947.676,769.586Z" transform="translate(-536.556 -459.9)"/><path class="f" d="M958.248,582.975c.442,2.1,2.477,3.709,2.534,5.853.052,1.721-1.175,3.164-2.059,4.635a30.922,30.922,0,0,0-2.1,4.757,72.669,72.669,0,0,1-6.168,12.27c-1.175,1.88-2.492,3.888-2.224,6.074a9.1,9.1,0,0,0,1.067,2.905l3.526,7a20.283,20.283,0,0,1,1.8,4.424c.306,1.33.334,2.708.512,4.062.555,4.3,2.571,8.622,1.377,12.787-.1.357-.47.79-.757.541a13.394,13.394,0,0,1,2.012,6.835c-.047,1.293-.442,2.642.033,3.845a4.21,4.21,0,0,1,.55,1.514,9.654,9.654,0,0,1-.2,1.039,2.291,2.291,0,0,0,1.758,2.134c.945.315,1.974.291,2.929.578,1.833.55,3.145,2.13,4.7,3.225a10.009,10.009,0,0,0,5.416,1.763,1.364,1.364,0,0,0,.8-.16,1.292,1.292,0,0,0,.442-.968,5.378,5.378,0,0,0-1.937-4.673,2.114,2.114,0,0,1-.719-.752,1.816,1.816,0,0,1-.066-.842,63.354,63.354,0,0,0-.207-11.564,17.565,17.565,0,0,1-.183-3.681,15.036,15.036,0,0,0,.3-3.06,16.265,16.265,0,0,0-.94-2.933,21.136,21.136,0,0,1-.47-5.458,47.865,47.865,0,0,0-1.547-9.4,7.111,7.111,0,0,0-1.462-3.394c-.733-.766-1.918-1.5-1.641-2.52a2.987,2.987,0,0,1,.672-1,4.019,4.019,0,0,0,.837-3.065,1.378,1.378,0,0,0,1.584-.743,24.786,24.786,0,0,0,12.4-14.1,4.652,4.652,0,0,1,.555-1.26,5.676,5.676,0,0,1,2.271-1.471c2.567-1.293,4.339-3.714,5.966-6.083a10.751,10.751,0,0,0,2.618-7.592l.146-5.524a2.986,2.986,0,0,0-.1-1.081,2.7,2.7,0,0,0-.6-.874,10.619,10.619,0,0,0-5.857-3.159c-1.5-.268-3.041-.216-4.565-.343-2.952-.244-5.867-1.161-8.819-.94-4.64.343-8.772,3.559-10.958,7.667C960.7,581.687,959.894,582.947,958.248,582.975Z" transform="translate(-542.155 -358.968)"/><path class="v" d="M909,504.59a6.172,6.172,0,0,1-.338,2.515,1.757,1.757,0,0,1-2.064,1.058c.24-.541-.395-1.156-.987-1.091a1.847,1.847,0,0,0-1.3,1.119,4.161,4.161,0,0,0-.376,2.553c.188,1.081.813,2.12.649,3.206-.132.9-.794,1.8-.442,2.637a4.268,4.268,0,0,0,.851,1.02,2.877,2.877,0,0,1-.306,3.949l8.894.179a6.28,6.28,0,0,0,1.1,4.325,27.266,27.266,0,0,0,20.327,13.271,1.768,1.768,0,0,0-.428,2.7,2.512,2.512,0,0,0,2.858.164,20.35,20.35,0,0,0,2.444-1.833,7.521,7.521,0,0,1,5.025-1.354c1.114.108,2.2.47,3.314.527,3.291.174,6.111-2.2,9.28-3.164,2.308-.71,4.927-.71,6.863-2.153a2.735,2.735,0,0,0,1.279-2.647,4.425,4.425,0,0,0-.94-1.556,26.882,26.882,0,0,1-2.571-4.818,28.82,28.82,0,0,0-6.426-8.612,57.488,57.488,0,0,0-6.374-4.833,10.873,10.873,0,0,0-1.721-1.039,19.293,19.293,0,0,1-2.351-.94,12.528,12.528,0,0,1-2.449-2.755c-1.763-2.059-4.471-3-6.642-4.621-1.457-1.086-2.745-2.515-4.485-3.037-.846-.259-1.744-.277-2.59-.531-1.923-.583-3.324-2.289-5.209-2.98-1.49-.545-3.136-.4-4.7-.6a11,11,0,0,1-4.913-1.871,5.83,5.83,0,0,0-1.565-.912c-2.383-.724-2.576,3.714-2.82,5.251A50.646,50.646,0,0,0,909,504.59Z" transform="translate(-518.669 -316.499)"/><path class="m" d="M882.583,541.833c.4,4.334-2.872,8.532-1.918,12.777.2.9.592,1.763.733,2.68.4,2.515-1.1,4.9-2.539,7L866.543,582.37a11.365,11.365,0,0,1-1.758,2.172c-2.351,2.092-5.886,1.88-8.979,2.5a15.515,15.515,0,0,0-6.017,2.661.39.39,0,0,0-.075.541,5.171,5.171,0,0,0,4.471,2.1c.324.423,0,1.053-.447,1.359-.658.47-1.57.578-1.7,1.7a1.88,1.88,0,0,0,.226,1.128,3.512,3.512,0,0,0,2.153,1.495c4.264,1.307,8.871-.987,12.063-4.1s5.481-7.051,8.612-10.22c1.735-1.758,3.7-3.258,5.491-4.96a62.813,62.813,0,0,0,9.007-11.654,12.9,12.9,0,0,0,1.951-3.968c.334-1.443.179-2.905.559-4.3.5-1.829,1.838-3.291,2.952-4.823a15.951,15.951,0,0,0,3.356-10.4c-.292-3.709-2.585-7.366-6.083-8.626a5.468,5.468,0,0,0-3.408-.207,8.074,8.074,0,0,0-3.469,2.764l-2.35,2.7a6.292,6.292,0,0,0-1.321,2.073,2.167,2.167,0,0,0,.47,2.3" transform="translate(-489.929 -338.859)"/><path class="w" d="M924.023,512c-1.617.094-3.4.254-4.541,1.41a6.464,6.464,0,0,0-1.147,1.8,17.881,17.881,0,0,0-2.271,7.146,32.692,32.692,0,0,0,.823,5.97c.254,1.655-.39,3.342-.513,5.016a34.818,34.818,0,0,0,6.478-2.492,21.683,21.683,0,0,1,3.794-1.97c1.932-.644,5.171.47,7.009,1.363.1-1.288-.87-3.535-.766-4.828a5.4,5.4,0,0,1,.287-1.6,9.7,9.7,0,0,1,.973-1.547,6.328,6.328,0,0,0-.569-7.413c-1.631-1.833-4.184-2.52-6.619-2.821a28.626,28.626,0,0,0-4.621-.16" transform="translate(-525.126 -326.807)"/></svg>