<svg xmlns="http://www.w3.org/2000/svg" xmlns:xlink="http://www.w3.org/1999/xlink" width="495.582" height="326.022" viewBox="0 0 495.582 326.022"><defs><style>.a{fill:#40afa8;}.b{opacity:0.7;}.c{fill:url(#a);}.d{opacity:0.2;}.e{fill:#fff;}.f{fill:url(#b);}.g{fill:url(#c);}.h{fill:#535461;}.i,.o{opacity:0.1;}.j{fill:#e0e0e0;}.k{fill:url(#d);}.l{fill:url(#e);}.m{fill:#eee;}.n{fill:url(#h);}.p{fill:url(#i);}.q{fill:none;}</style><linearGradient id="a" x1="0.5" y1="1" x2="0.5" gradientUnits="objectBoundingBox"><stop offset="0" stop-color="gray" stop-opacity="0.251"/><stop offset="0.54" stop-color="gray" stop-opacity="0.122"/><stop offset="1" stop-color="gray" stop-opacity="0.102"/></linearGradient><linearGradient id="b" x1="0.5" y1="1" x2="0.5" y2="0" xlink:href="#a"/><linearGradient id="c" x1="0.5" y1="1" x2="0.5" y2="0" xlink:href="#a"/><linearGradient id="d" x1="0.5" x2="0.5" y2="1" gradientUnits="objectBoundingBox"><stop offset="0" stop-color="#e0e0e0"/><stop offset="0.31" stop-color="#fccc63"/><stop offset="0.77" stop-color="#f55f44"/></linearGradient><linearGradient id="e" x1="0.5" y1="0" x2="0.5" y2="1" xlink:href="#d"/><linearGradient id="h" x1="0.5" y1="0.999" x2="0.5" y2="-0.001" xlink:href="#a"/><linearGradient id="i" x1="0.503" y1="1" x2="0.503" y2="0.002" xlink:href="#a"/></defs><g transform="translate(0.018 3.401)"><path class="a" d="M465.03,400.648a61.092,61.092,0,0,1-12.093-.162c-44.145-4.881-104.259-3.492-153.263,26.87C231.9,469.34,125.692,433.4,78.841,413.845,43.043,398.91,24.459,362.331,35.621,328c.157-.485.319-.969.489-1.454C43.135,306.137,57,290.168,74.17,281.7c14.965-7.378,36.815-22.784,46.537-52.387a125.362,125.362,0,0,1,16.681-33.746C156.548,168.725,196.66,128.75,265.645,129a111.174,111.174,0,0,1,35.54,6.016c25.2,8.587,47.965,26.045,65.322,50.248,11.076,15.437,27.673,29.786,51.435,30.956,32.978,1.633,64.449,16.987,88.058,44.311.681.786,1.353,1.576,2.026,2.375C550.063,312.982,520.866,395.767,465.03,400.648Z" transform="translate(-32.41 -132.398)"/><g class="b" transform="translate(115.093 292.289)"><circle class="c" cx="6.025" cy="6.025" r="6.025"/></g><circle class="d" cx="5.754" cy="5.754" r="5.754" transform="translate(115.364 292.56)"/><circle class="e" cx="2.226" cy="2.226" r="2.226" transform="translate(86.433 178.578)"/><circle class="e" cx="2.226" cy="2.226" r="2.226" transform="translate(245.34 307.8)"/><circle class="e" cx="1.244" cy="1.244" r="1.244" transform="translate(152.462 320.133)"/><circle class="e" cx="1.244" cy="1.244" r="1.244" transform="translate(427.932 259.887)"/><circle class="e" cx="1.244" cy="1.244" r="1.244" transform="translate(356.772 148.128)"/><circle class="e" cx="1.244" cy="1.244" r="1.244" transform="translate(457.618 202.698)"/><circle class="e" cx="2.226" cy="2.226" r="2.226" transform="translate(125.723 105.673)"/><path class="e" d="M146.782,589.652H144.8V587.67h-.808v1.982H142.01v.808h1.982v1.978h.808V590.46h1.982Z" transform="translate(-80.025 -331.109)"/><path class="e" d="M260.782,587.652H258.8V585.67h-.808v1.982H256.01v.808h1.982v1.978h.808V588.46h1.982Z" transform="translate(-144.257 -329.982)"/><path class="e" d="M423.782,679.652H421.8V677.67h-.808v1.982H419.01v.808h1.982v1.978h.808V680.46h1.982Z" transform="translate(-236.098 -381.819)"/><path class="e" d="M654.164,129.544h-.9v-.9h-.367v.9h-.9v.367h.9v.9h.367v-.9h.9Z" transform="translate(-367.368 -72.473)"/><path class="e" d="M949.164,319.544h-.9v-.9h-.367v.9h-.9v.367h.9v.9h.367v-.9h.9Z" transform="translate(-533.583 -179.527)"/><path class="e" d="M775.164,443.544h-.9v-.9h-.367v.9h-.9v.367h.9v.9h.367v-.9h.9Z" transform="translate(-435.544 -249.393)"/><path class="e" d="M67.164,521.544h-.9v-.9h-.367v.9h-.9v.367h.9v.9h.367v-.9h.9Z" transform="translate(-36.628 -293.342)"/><path class="e" d="M152.164,691.544h-.9v-.9h-.367v.9h-.9v.367h.9v.9h.367v-.9h.9Z" transform="translate(-84.521 -389.126)"/><path class="e" d="M419.164,154.544h-.9v-.9h-.367v.9h-.9v.367h.9v.9h.367v-.9h.9Z" transform="translate(-234.959 -86.559)"/><path class="e" d="M293.164,453.544h-.9v-.9h-.367v.9h-.9v.367h.9v.9h.367v-.9h.9Z" transform="translate(-163.966 -255.028)"/><path class="e" d="M320.164,367.544h-.9v-.9h-.367v.9h-.9v.367h.9v.9h.367v-.9h.9Z" transform="translate(-179.179 -206.572)"/><g class="b" transform="translate(321.573 237.553)"><circle class="f" cx="5.029" cy="5.029" r="5.029"/></g><circle class="d" cx="4.658" cy="4.658" r="4.658" transform="translate(321.944 237.924)"/><circle class="d" cx="5.208" cy="5.208" r="5.208" transform="translate(370.936 225.164)"/><g class="b" transform="translate(165.493 0.014)"><path class="g" d="M538.5,176.935a67.567,67.567,0,0,0-7.64-31.432,39.4,39.4,0,0,0-6.269-9.128,4.475,4.475,0,0,0-5.125-.987,4.645,4.645,0,0,0-1.794,1.157,40.291,40.291,0,0,0-6.112,8.788,67.853,67.853,0,0,0-8.02,32.305V184.4H499.2V105.81a105.259,105.259,0,0,0-10.914-47.118,59.442,59.442,0,0,0-8.945-13.677,6.2,6.2,0,0,0-9.321,0,60.745,60.745,0,0,0-8.731,13.167,105.759,105.759,0,0,0-11.447,48.38v77.8H446.1V177.28A67.838,67.838,0,0,0,438.08,145a41.218,41.218,0,0,0-6.112-8.788,4.484,4.484,0,0,0-5.239-.952l.157.083a4.7,4.7,0,0,0-1.462,1.022,39.647,39.647,0,0,0-6.265,9.128,67.567,67.567,0,0,0-7.64,31.432V294.356H424.9l-1.476,9.652v28.87h10.94v-28.87l-1.462-9.657h13.184V187.395h3.746V293.889H460.51l-1.532,10.119v28.87h10.94v-28.87l-1.532-10.133h14.406l-1.541,10.133v28.87h10.94v-28.87l-1.532-10.133h8.53V187.408h4.335V294.526h3.514v-.162H518.66l-1.458,9.644v28.87h10.94v-28.87l-1.462-9.657H538.5Z" transform="translate(-411.519 -42.904)"/></g><path class="h" d="M423.03,569.017H412.67l1.851-12.577h6.658Z" transform="translate(-232.525 -313.513)"/><g class="i" transform="translate(181.481 244.407)"><path d="M415.73,563.344h7.688l-.515-3.514h-6.658Z" transform="translate(-415.73 -559.83)"/></g><path class="h" d="M626.385,569.017H616.03l1.847-12.577h6.662Z" transform="translate(-347.107 -313.513)"/><g class="i" transform="translate(270.255 244.407)"><path d="M619.08,563.344h7.692l-.515-3.514H619.6Z" transform="translate(-619.08 -559.83)"/></g><path class="h" d="M500.135,569.017H489.78l1.847-12.577h6.662Z" transform="translate(-275.972 -313.513)"/><g class="i" transform="translate(215.139 244.407)"><path d="M492.83,563.344h7.692l-.515-3.514h-6.662Z" transform="translate(-492.83 -559.83)"/></g><path class="h" d="M548.435,569.017H538.08l1.847-12.577h6.658Z" transform="translate(-303.186 -313.513)"/><g class="i" transform="translate(236.225 244.407)"><path d="M541.13,563.344h7.692l-.519-3.514h-6.658Z" transform="translate(-541.13 -559.83)"/></g><rect class="h" width="73.979" height="2.96" transform="translate(190.504 138.987)"/><path class="j" d="M639.2,252.39a4.169,4.169,0,0,0-6.182,0,39.791,39.791,0,0,0-5.8,8.557,67.565,67.565,0,0,0-7.592,31.432V406.251h32.742V291.9a67.326,67.326,0,0,0-7.234-30.62A38.226,38.226,0,0,0,639.2,252.39Z" transform="translate(-363.283 -160.15)"/><path class="j" d="M432.4,252.39a4.169,4.169,0,0,1,6.182,0,39.8,39.8,0,0,1,5.8,8.557,67.618,67.618,0,0,1,7.592,31.432V406.251H419.229V291.9a67.325,67.325,0,0,1,7.234-30.62A38.1,38.1,0,0,1,432.4,252.39Z" transform="translate(-250.37 -160.15)"/><path class="h" d="M387.25,307.33l7.771.039v9.578H387.25Z" transform="translate(-218.203 -173.154)"/><path class="h" d="M444.02,307.33l7.771.039v9.578H444.02Z" transform="translate(-250.189 -173.154)"/><path class="h" d="M587.22,307.33l7.766.039v9.578H587.22Z" transform="translate(-330.874 -173.154)"/><path class="h" d="M643.99,307.33l7.766.039v9.578H643.99Z" transform="translate(-362.86 -173.154)"/><g class="i" transform="translate(183.262 90.72)"><path d="M462.968,260.606a39.8,39.8,0,0,0-5.8-8.557,4.152,4.152,0,0,0-4.946-.93,4.412,4.412,0,0,1,1.249.93,39.791,39.791,0,0,1,5.8,8.557,67.558,67.558,0,0,1,7.592,31.432V405.9h3.7V292.043a67.615,67.615,0,0,0-7.592-31.437Z" transform="translate(-452.22 -250.678)"/></g><g class="i" transform="translate(255.974 91.035)"><path d="M629.7,261.327a39.789,39.789,0,0,1,5.8-8.557,4.329,4.329,0,0,1,1.432-1.022,4.165,4.165,0,0,0-4.759,1.022,39.641,39.641,0,0,0-5.8,8.557,67.618,67.618,0,0,0-7.592,31.432V406.64h3.331V292.768A67.565,67.565,0,0,1,629.7,261.327Z" transform="translate(-618.779 -251.399)"/></g><path class="k" d="M450.4,656.254h-.284a5.038,5.038,0,0,1-5.038-5.038V628.14h10.36v23.076A5.038,5.038,0,0,1,450.4,656.254Z" transform="translate(-264.935 -372.636)"/><path class="l" d="M527.512,656.254h-.288a5.038,5.038,0,0,1-5.034-5.038V628.14h10.355v23.076A5.038,5.038,0,0,1,527.512,656.254Z" transform="translate(-308.382 -372.636)"/><path class="l" d="M575.807,656.254h-.293a5.038,5.038,0,0,1-5.025-5.038V628.14h10.355v23.076A5.038,5.038,0,0,1,575.807,656.254Z" transform="translate(-335.596 -372.636)"/><path class="l" d="M653.762,656.254h-.275a5.038,5.038,0,0,1-5.047-5.038V628.14H658.8v23.076A5.038,5.038,0,0,1,653.762,656.254Z" transform="translate(-379.517 -372.636)"/><path class="m" d="M530.263,46.988a5.763,5.763,0,0,0-8.823,0,61.251,61.251,0,0,0-8.295,12.822,105.432,105.432,0,0,0-10.835,47.114V289.671h46.712V106.19A105.09,105.09,0,0,0,538.7,60.307,56.887,56.887,0,0,0,530.263,46.988Z" transform="translate(-297.181 -44.033)"/><rect class="h" width="24.377" height="11.172" rx="5.586" transform="translate(215.995 23.255)"/><g class="i" transform="translate(205.382 69.137)"><rect width="46.236" height="1.794"/></g><path class="n" d="M758.685,346.563h0a15.115,15.115,0,0,0-4.462-3.929h0a14.987,14.987,0,1,0-7.5,27.97,8.5,8.5,0,0,0,.947-.035,14.983,14.983,0,0,0,11.014-23.98Z" transform="translate(-426.456 -210.641)"/><path class="d" d="M761.915,356.6a14.166,14.166,0,0,1-13.269,14.136c-.295,0-.6.031-.9.031a14.171,14.171,0,1,1,7.085-26.438h0a14.228,14.228,0,0,1,4.217,3.737h0A14.1,14.1,0,0,1,761.915,356.6Z" transform="translate(-427.482 -211.655)"/><path class="o" d="M753.576,354.122a15.226,15.226,0,0,0-2.113,1.113,3.322,3.322,0,0,0-1.131,1.013,1.31,1.31,0,0,0-.026,1.445,2.034,2.034,0,0,0,1.593.576,4.077,4.077,0,0,0,1.825-.183,3.928,3.928,0,0,0,1.065-.773l1.218-1.1c.437-.384.873-.912.7-1.454a1.31,1.31,0,0,0-1.035-.7,4.331,4.331,0,0,0-3.056.537" transform="translate(-436.797 -218.161)"/><g class="i" transform="translate(310.947 149.796)"><circle cx="0.747" cy="0.747" r="0.747"/></g><g class="i" transform="translate(324.118 143.086)"><circle cx="2.733" cy="2.733" r="2.733"/></g><g class="i" transform="translate(324.14 132.678)"><path d="M782.376,350.527h0a3.728,3.728,0,1,1-4.221-3.737h0A14.228,14.228,0,0,1,782.376,350.527Z" transform="translate(-774.92 -346.79)"/></g><g class="i" transform="translate(321.136 151.784)"><path d="M778.753,391.875a14.131,14.131,0,0,1-10.687,5.981c0-.2-.026-.393-.026-.594a6.714,6.714,0,0,1,10.713-5.387Z" transform="translate(-768.04 -390.555)"/></g><path class="p" d="M325.781,534.05h0a10.541,10.541,0,0,0-3.117-2.759h0a10.477,10.477,0,1,0-5.239,19.514c.223,0,.437,0,.664-.022a10.477,10.477,0,0,0,7.683-16.733Z" transform="translate(-187.07 -317.255)"/><path class="d" d="M328.18,541.115a9.883,9.883,0,0,1-9.257,9.862H318.3a9.884,9.884,0,1,1,4.942-18.445h0a9.9,9.9,0,0,1,2.942,2.619h0A9.832,9.832,0,0,1,328.18,541.115Z" transform="translate(-187.932 -318.021)"/><path class="o" d="M322.36,539.406a10.252,10.252,0,0,0-1.471.773,2.418,2.418,0,0,0-.79.707.93.93,0,0,0,0,1.008,1.41,1.41,0,0,0,1.109.4,2.843,2.843,0,0,0,1.275-.127,2.75,2.75,0,0,0,.746-.541l.847-.768c.3-.271.62-.637.489-1.013a.873.873,0,0,0-.72-.489,3,3,0,0,0-2.126.375" transform="translate(-194.432 -322.581)"/><g class="i" transform="translate(123.859 226.473)"><circle cx="0.52" cy="0.52" r="0.52"/></g><g class="i" transform="translate(133.049 221.793)"><circle cx="1.908" cy="1.908" r="1.908"/></g><g class="i" transform="translate(133.014 214.52)"><path d="M342.359,536.879h0a2.619,2.619,0,1,1-2.947-2.619h0A9.9,9.9,0,0,1,342.359,536.879Z" transform="translate(-337.12 -534.26)"/></g><g class="i" transform="translate(130.988 227.839)"><path d="M339.936,565.713a9.862,9.862,0,0,1-7.456,4.174c0-.135,0-.275,0-.437a4.684,4.684,0,0,1,7.474-3.759Z" transform="translate(-332.48 -564.77)"/></g><path class="q" d="M837.69,539.42l9.517,5.064-7.43,8.312" transform="translate(-471.999 -303.923)"/><circle class="e" cx="0.803" cy="0.803" r="0.803" transform="translate(416.057 186.153)"/></g></svg>