<svg xmlns="http://www.w3.org/2000/svg" width="49.1" height="49.1" viewBox="0 0 49.1 49.1"><defs><style>.a{fill:#fff;}</style></defs><path class="a" d="M24.55,0c-6.669,0-7.5.031-10.121.147A18.1,18.1,0,0,0,8.47,1.289,12.022,12.022,0,0,0,4.12,4.12,11.978,11.978,0,0,0,1.289,8.47,18.05,18.05,0,0,0,.147,14.429C.025,17.048,0,17.881,0,24.55s.031,7.5.147,10.121a18.114,18.114,0,0,0,1.142,5.96A12.04,12.04,0,0,0,4.12,44.98,12.005,12.005,0,0,0,8.47,47.811a18.125,18.125,0,0,0,5.959,1.142c2.619.123,3.451.147,10.121.147s7.5-.031,10.121-.147a18.167,18.167,0,0,0,5.959-1.142,12.546,12.546,0,0,0,7.181-7.181,18.114,18.114,0,0,0,1.142-5.959c.123-2.619.147-3.451.147-10.121s-.031-7.5-.147-10.121A18.156,18.156,0,0,0,47.811,8.47,12.049,12.049,0,0,0,44.979,4.12,11.961,11.961,0,0,0,40.63,1.289,18.061,18.061,0,0,0,34.671.147C32.052.025,31.219,0,24.55,0Zm0,4.419c6.553,0,7.334.033,9.922.145a13.526,13.526,0,0,1,4.556.849,8.079,8.079,0,0,1,4.66,4.658,13.555,13.555,0,0,1,.845,4.556c.117,2.59.143,3.367.143,9.922s-.031,7.334-.151,9.922a13.816,13.816,0,0,1-.861,4.556,7.8,7.8,0,0,1-1.839,2.827A7.659,7.659,0,0,1,39,43.689a13.654,13.654,0,0,1-4.572.845c-2.606.117-3.374.143-9.941.143s-7.336-.031-9.941-.151a13.921,13.921,0,0,1-4.574-.861,7.6,7.6,0,0,1-2.821-1.839A7.454,7.454,0,0,1,5.311,39a13.933,13.933,0,0,1-.859-4.572c-.092-2.578-.125-3.374-.125-9.91s.033-7.336.125-9.945A13.917,13.917,0,0,1,5.311,10,7.277,7.277,0,0,1,7.152,7.179,7.261,7.261,0,0,1,9.973,5.342a13.588,13.588,0,0,1,4.544-.861c2.608-.092,3.376-.123,9.941-.123l.092.061Zm0,7.525A12.606,12.606,0,1,0,37.156,24.55,12.606,12.606,0,0,0,24.55,11.944Zm0,20.79a8.183,8.183,0,1,1,8.183-8.183A8.181,8.181,0,0,1,24.55,32.733ZM40.6,11.446A2.946,2.946,0,1,1,37.655,8.5,2.948,2.948,0,0,1,40.6,11.446Z"/></svg>