<svg xmlns="http://www.w3.org/2000/svg" width="49.1" height="49.1" viewBox="0 0 49.1 49.1"><defs><style>.a{fill:#fff;}</style></defs><path class="a" d="M41.831,41.841H34.56V30.448c0-2.717-.055-6.213-3.789-6.213-3.791,0-4.37,2.956-4.37,6.013V41.841H19.13V18.412h6.984v3.194h.094A7.662,7.662,0,0,1,33.1,17.821c7.367,0,8.73,4.849,8.73,11.16v12.86ZM10.919,15.207a4.223,4.223,0,1,1,4.223-4.225A4.218,4.218,0,0,1,10.919,15.207Zm3.646,26.635H7.273V18.412h7.291ZM45.468,0H3.623A3.58,3.58,0,0,0,0,3.537V45.563A3.578,3.578,0,0,0,3.623,49.1H45.462A3.592,3.592,0,0,0,49.1,45.563V3.537A3.593,3.593,0,0,0,45.462,0Z"/></svg>