<svg xmlns="http://www.w3.org/2000/svg" width="98" height="98" viewBox="0 0 98 98"><defs><style>.a{fill:none;}.b{fill:#28ad47;}</style></defs><g transform="translate(-237 -1631)"><rect class="a" width="98" height="98" transform="translate(237 1631)"/><path class="b" d="M22.9,72.053A37.627,37.627,0,1,1,37.5,75,37.366,37.366,0,0,1,22.9,72.053ZM24.792,7.419A32.75,32.75,0,1,0,37.5,4.853,32.52,32.52,0,0,0,24.792,7.419ZM35.233,61.8V56.812a14.472,14.472,0,0,1-7.714-3.422A13.675,13.675,0,0,1,23.111,46.2l4.757-1.914a10.093,10.093,0,0,0,2.7,4.785,9.283,9.283,0,0,0,4.668,2.581V37.73Q29.434,35.411,27,32.6a10.061,10.061,0,0,1,.522-13.688,12.116,12.116,0,0,1,7.714-3.451v-4.93h4.408v5.1a12.958,12.958,0,0,1,6.235,2.726A10.632,10.632,0,0,1,49.443,23.4l-4.756,2.03a6.409,6.409,0,0,0-5.046-4.582V33.9q5.916,2.493,8.294,5.162a9.267,9.267,0,0,1,2.378,6.38,10.478,10.478,0,0,1-2.871,7.569,13.221,13.221,0,0,1-7.8,3.741V61.8Zm4.408-10.266q5.337-1.218,5.336-5.974,0-3.6-5.336-6.032Zm-8.293-29A4.743,4.743,0,0,0,29.9,26.014q0,3.48,5.336,6.09V20.678A6.932,6.932,0,0,0,31.348,22.534Z" transform="translate(248.486 1643)"/></g></svg>