<svg xmlns="http://www.w3.org/2000/svg" xmlns:xlink="http://www.w3.org/1999/xlink" width="159" height="53" viewBox="0 0 159 53"><defs><style>.a{fill:#fff;stroke:#707070;}.b{fill:#28ad47;}.c{clip-path:url(#a);}.d{fill:rgba(36,36,36,0.69);font-size:29px;font-family:Yagora;letter-spacing:0.015em;}.e{font-size:18px;}</style><clipPath id="a"><rect class="a" width="103" height="53" transform="translate(196 18)"/></clipPath></defs><g transform="translate(-140 -18)"><g transform="translate(68.5 -67.45)"><path class="b" d="M4.145,8.289A4.145,4.145,0,1,1,8.29,4.144,4.15,4.15,0,0,1,4.145,8.289Zm.06-6.169A2.121,2.121,0,1,0,6.326,4.242,2.124,2.124,0,0,0,4.205,2.121Z" transform="translate(90.523 105.828)"/><path class="b" d="M115.459,105.889A18.9,18.9,0,0,0,109.6,102.8c-.479-.165-.974-.33-1.486-.462.083-.347.165-.694.231-1.024,1.156-5.582.33-9.925-2.13-11.345a5.636,5.636,0,0,0-4.756,0,18.821,18.821,0,0,0-5.6,3.534c-.38.33-.776.694-1.156,1.057-.264-.248-.512-.479-.776-.71-4.26-3.782-8.438-5.251-10.9-3.831a5.624,5.624,0,0,0-2.378,4.128,19.148,19.148,0,0,0,.264,6.622c.1.5.215,1.024.347,1.536-.594.165-1.172.347-1.717.545-5.037,1.75-8.042,4.426-8.042,7.167a5.884,5.884,0,0,0,2.427,4.26,18.671,18.671,0,0,0,6.06,3.237c.413.132.826.264,1.255.4-.132.561-.264,1.106-.363,1.651-.991,5.235-.165,9.181,2.2,10.552a4.353,4.353,0,0,0,2.213.545,7.941,7.941,0,0,0,2.675-.512,18.493,18.493,0,0,0,5.829-3.616c.314-.281.644-.578.958-.892.413.4.842.776,1.255,1.139,2.972,2.56,5.813,3.914,8.059,3.914a4.21,4.21,0,0,0,2.163-.545,5.85,5.85,0,0,0,2.477-4.227,19.248,19.248,0,0,0-.231-6.87c-.083-.413-.165-.826-.281-1.239.3-.083.578-.182.859-.264,5.416-1.783,8.769-4.673,8.769-7.514A5.579,5.579,0,0,0,115.459,105.889ZM102.132,91.836a3.911,3.911,0,0,1,3.088-.149c1.321.76,2.262,3.98,1.172,9.231-.066.3-.132.611-.215.908a46.114,46.114,0,0,0-6.209-.974,45.381,45.381,0,0,0-3.914-4.871c.347-.347.71-.661,1.057-.974A17.693,17.693,0,0,1,102.132,91.836Zm-.991,21.963c-.727,1.255-1.47,2.461-2.213,3.583-1.371.1-2.791.149-4.244.149s-2.857-.05-4.194-.132c-.793-1.156-1.552-2.361-2.262-3.583-.71-1.239-1.371-2.494-1.982-3.732.594-1.255,1.255-2.51,1.965-3.732h0c.71-1.239,1.47-2.444,2.246-3.583,1.387-.1,2.791-.165,4.211-.165,1.437,0,2.84.05,4.227.165.76,1.139,1.519,2.328,2.229,3.567.727,1.272,1.4,2.51,2,3.716C102.529,111.289,101.868,112.544,101.142,113.8Zm3.055-1.47a39.786,39.786,0,0,1,1.552,4.079,39.225,39.225,0,0,1-4.327.743c.479-.76.958-1.552,1.42-2.361C103.338,113.964,103.784,113.139,104.2,112.329ZM94.751,122.8a41.358,41.358,0,0,1-2.791-3.336c.875.033,1.783.05,2.708.05.941,0,1.883-.017,2.807-.066C96.567,120.669,95.659,121.792,94.751,122.8Zm-6.787-5.631a37.656,37.656,0,0,1-4.26-.694,42.675,42.675,0,0,1,1.5-4.079c.413.793.859,1.6,1.321,2.394Q87.2,116.028,87.964,117.168Zm-1.453-11.824c-.462.793-.892,1.6-1.321,2.394a41.179,41.179,0,0,1-1.47-4.013c1.321-.3,2.741-.545,4.211-.727C87.435,103.775,86.957,104.552,86.511,105.344ZM94.7,97.4c.908.991,1.816,2.081,2.725,3.286-.908-.05-1.833-.066-2.758-.066-.908,0-1.816.017-2.708.066A40.089,40.089,0,0,1,94.7,97.4Zm8.141,7.926c-.462-.793-.925-1.569-1.4-2.312a40.157,40.157,0,0,1,4.227.743,38.615,38.615,0,0,1-1.486,4Q103.561,106.541,102.843,105.328ZM82.861,100.39a16.616,16.616,0,0,1-.248-5.9,3.84,3.84,0,0,1,1.42-2.758c1.321-.76,4.574.033,8.587,3.6q.347.3.694.644a45.929,45.929,0,0,0-3.93,4.871,49.164,49.164,0,0,0-6.193.958C83.059,101.331,82.96,100.869,82.861,100.39Zm-2.246,15.258c-4.9-1.668-7.134-4.1-7.134-5.631,0-1.47,2.081-3.683,6.721-5.3q.768-.272,1.585-.5a45.746,45.746,0,0,0,2.262,5.862,46.69,46.69,0,0,0-2.279,5.928C81.375,115.9,81,115.764,80.615,115.649Zm4.673,13.029a2.432,2.432,0,0,1-1.222-.281c-1.272-.727-2.147-3.633-1.239-8.455.1-.5.215-1.007.33-1.536a46.762,46.762,0,0,0,6.242.908,49.567,49.567,0,0,0,3.98,4.921c-.3.281-.594.561-.875.809C89.5,127.637,86.924,128.678,85.289,128.678Zm21.269-9.248c1.007,5.086.033,8.224-1.288,8.983-1.272.743-4.227.05-7.943-3.154-.38-.33-.776-.694-1.172-1.057a43.6,43.6,0,0,0,3.881-4.938,45.5,45.5,0,0,0,6.275-.974Q106.434,118.885,106.558,119.43Zm1.9-3.782c-.248.083-.512.165-.776.248a45.122,45.122,0,0,0-2.345-5.862,47.975,47.975,0,0,0,2.262-5.8c.479.132.941.281,1.387.429a17.009,17.009,0,0,1,5.235,2.741,3.827,3.827,0,0,1,1.668,2.609C115.872,111.553,113.543,113.964,108.457,115.649Z"/></g><g class="c"><text class="d" transform="translate(200 45)"><tspan x="0" y="0">Atom</tspan><tspan class="e"><tspan x="0" y="18">Funding</tspan></tspan></text></g></g></svg>