<svg xmlns="http://www.w3.org/2000/svg" width="49.1" height="49.1" viewBox="0 0 49.1 49.1"><defs><style>.a{fill:#fff;}</style></defs><path class="a" d="M10.315,31.025A5.158,5.158,0,1,1,5.16,25.87h5.155v5.155Zm2.6,0a5.158,5.158,0,0,1,10.315,0V43.94a5.158,5.158,0,1,1-10.315,0V31.025Zm5.158-20.71A5.158,5.158,0,1,1,23.23,5.16v5.155Zm0,2.6a5.158,5.158,0,0,1,0,10.315H5.16a5.158,5.158,0,1,1,0-10.315H18.073Zm20.708,5.158a5.16,5.16,0,1,1,5.16,5.158h-5.16V18.073Zm-2.594,0a5.159,5.159,0,0,1-10.317,0V5.16a5.159,5.159,0,1,1,10.317,0ZM31.025,38.781a5.16,5.16,0,1,1-5.155,5.16v-5.16h5.155Zm0-2.594a5.159,5.159,0,0,1,0-10.317H43.94a5.159,5.159,0,1,1,0,10.317H31.025Z"/></svg>