<svg xmlns="http://www.w3.org/2000/svg" width="98" height="98" viewBox="0 0 98 98"><defs><style>.a{fill:none;}.b{fill:#28ad47;}</style></defs><g transform="translate(-432 -1723)"><rect class="a" width="98" height="98" transform="translate(432 1723)"/><path class="b" d="M-4476.023,363.047a34.035,34.035,0,0,1-31.109-20.354,34.013,34.013,0,0,1,6.085-36.665,34.044,34.044,0,0,1,36.017-9.223l-1.19,1.19a10.2,10.2,0,0,0-2.724,4.763,27.268,27.268,0,0,0-30.712,12.669,27.244,27.244,0,0,0,4.341,32.927,27.272,27.272,0,0,0,32.948,4.282,27.246,27.246,0,0,0,12.62-30.724,10.208,10.208,0,0,0,4.766-2.687l1.191-1.191a33.98,33.98,0,0,1-4.515,30.807,34,34,0,0,1-27.646,14.205Zm-14.485-19.625a20.406,20.406,0,0,1-3.217-24.642,20.425,20.425,0,0,1,22.977-9.489l-6.127,6.125a13.612,13.612,0,0,0-12.767,13.854,13.613,13.613,0,0,0,13.309,13.335,13.613,13.613,0,0,0,13.889-12.729l6.127-6.125a20.412,20.412,0,0,1-9.546,22.947,20.389,20.389,0,0,1-10.181,2.722A20.41,20.41,0,0,1-4490.508,343.422Zm12.291-12.161a3.4,3.4,0,0,1-.209-4.618l16.025-16.059v-5.376a3.4,3.4,0,0,1,1.021-2.382l6.805-6.8a3.4,3.4,0,0,1,3.677-.717,3.4,3.4,0,0,1,2.106,3.1v3.4h3.4a3.4,3.4,0,0,1,3.1,2.106,3.4,3.4,0,0,1-.716,3.677l-6.805,6.805a3.4,3.4,0,0,1-2.382,1.02h-5.41l-15.991,15.991a3.394,3.394,0,0,1-2.232.835A3.4,3.4,0,0,1-4478.217,331.261Z" transform="translate(4957 1443)"/></g></svg>