<svg xmlns="http://www.w3.org/2000/svg" width="49.102" height="39.908" viewBox="0 0 49.102 39.908"><defs><style>.a{fill:#fff;}</style></defs><path class="a" d="M49.006,7a20.459,20.459,0,0,1-5.779,1.586,10.143,10.143,0,0,0,4.425-5.571,20.792,20.792,0,0,1-6.4,2.422,10.063,10.063,0,0,0-17.412,6.87,10.3,10.3,0,0,0,.26,2.3A28.508,28.508,0,0,1,3.355,4.118,9.865,9.865,0,0,0,1.993,9.181a10.067,10.067,0,0,0,4.476,8.38A10.033,10.033,0,0,1,1.911,16.3v.125A10.072,10.072,0,0,0,9.984,26.3a10.158,10.158,0,0,1-4.525.174,10.1,10.1,0,0,0,9.419,6.991A20.188,20.188,0,0,1,2.394,37.772,21.365,21.365,0,0,1,0,37.635a28.632,28.632,0,0,0,15.46,4.519c18.523,0,28.639-15.336,28.639-28.613,0-.428,0-.859-.031-1.289A20.327,20.327,0,0,0,49.1,7.039L49.006,7Z" transform="translate(0 -2.246)"/></svg>